<?xml version="1.0" encoding="UTF-8" standalone="no"?>
<svg
   xmlns:dc="http://purl.org/dc/elements/1.1/"
   xmlns:cc="http://creativecommons.org/ns#"
   xmlns:rdf="http://www.w3.org/1999/02/22-rdf-syntax-ns#"
   xmlns:svg="http://www.w3.org/2000/svg"
   xmlns="http://www.w3.org/2000/svg"
   xmlns:sodipodi="http://sodipodi.sourceforge.net/DTD/sodipodi-0.dtd"
   xmlns:inkscape="http://www.inkscape.org/namespaces/inkscape"
   data-name="Layer 1"
   width="676"
   height="676"
   viewBox="0 0 676 676"
   version="1.1"
   id="svg32"
   sodipodi:docname="undraw_male_avatar_323b.svg"
   inkscape:version="0.92.4 (5da689c313, 2019-01-14)">
  <metadata
     id="metadata38">
    <rdf:RDF>
      <cc:Work
         rdf:about="">
        <dc:format>image/svg+xml</dc:format>
        <dc:type
           rdf:resource="http://purl.org/dc/dcmitype/StillImage" />
        <dc:title>male_avatar</dc:title>
      </cc:Work>
    </rdf:RDF>
  </metadata>
  <defs
     id="defs36" />
  <sodipodi:namedview
     pagecolor="#ffffff"
     bordercolor="#666666"
     borderopacity="1"
     objecttolerance="10"
     gridtolerance="10"
     guidetolerance="10"
     inkscape:pageopacity="0"
     inkscape:pageshadow="2"
     inkscape:window-width="1536"
     inkscape:window-height="801"
     id="namedview34"
     showgrid="false"
     showborder="false"
     inkscape:pagecheckerboard="true"
     inkscape:zoom="0.34911243"
     inkscape:cx="-190.48305"
     inkscape:cy="338"
     inkscape:window-x="-4"
     inkscape:window-y="-4"
     inkscape:window-maximized="1"
     inkscape:current-layer="svg32" />
  <title
     id="title2">male_avatar</title>
  <g
     id="g859"
     transform="translate(-750.47458,-120.30508)"
     inkscape:export-xdpi="42.603531"
     inkscape:export-ydpi="42.603531">
    <path
       id="path4"
       transform="translate(-262,-112)"
       d="m 938,450 a 336.852,336.852 0 0 1 -27.22,133.1 l -1.12,2.58 A 338.559,338.559 0 0 1 541.35,782.93 q -3.045,-0.54 -6.08,-1.12 a 334.98111,334.98111 0 0 1 -61.14,-18.03 q -4.815,-1.935 -9.56,-4.01 c -2.16,-0.94 -4.32,-1.91 -6.46,-2.91 A 338.41424,338.41424 0 0 1 262,450 c 0,-186.67 151.33,-338 338,-338 186.67,0 338,151.33 338,338 z"
       inkscape:connector-curvature="0"
       style="fill:#009b99" />
    <path
       id="path6"
       transform="translate(-262,-112)"
       d="m 541.35,782.93 q -3.045,-0.54 -6.08,-1.12 C 533.95,743.5 529.42,664.87 513.96995,582.52 505.52,537.45 493.79,491.25 477.52,449.95 a 412.60387,412.60387 0 0 0 -19.07,-41.84 c -16.44,-31.05 -36.38,-57.19 -60.56,-74.9 l 3.56,-4.86 q 30.165,22.11 54.22,62.08 7.215,11.97 13.86005,25.54 7.125,14.52 13.59,30.83 4.125,10.38 7.97,21.48 16.74,48.195 28.46,109.98 2.59506,13.65 4.94,27.97 C 536.6,680.2 540.25,748.59 541.35,782.93 Z"
       inkscape:connector-curvature="0"
       style="opacity:0.2" />
    <path
       id="path8"
       transform="translate(-262,-112)"
       d="m 464.57,759.77 c -2.16,-0.94 -4.32,-1.91 -6.46,-2.91 -2.09,-22.7 -5.93,-50.86 -12.95,-77.59 a 254.55666,254.55666 0 0 0 -11.81,-35.2 c -8.01,-18.75 -18.38,-34.69 -31.79,-44.52 l 3.56,-4.85 c 14.04,10.28 24.87,26.53 33.24,45.54 9.43,21.42 15.72,46.35 19.91,70.17 3.11,17.69 5.07,34.78 6.3,49.36 z"
       inkscape:connector-curvature="0"
       style="opacity:0.2" />
    <circle
       id="circle10"
       r="30.08857"
       cy="190.98167"
       cx="102.26174"
       style="opacity:0.2" />
    <circle
       id="circle12"
       r="30.08857"
       cy="449.99084"
       cx="111.9514"
       style="opacity:0.2" />
    <path
       id="path14"
       transform="translate(-262,-112)"
       d="m 483.71449,353.52139 c -6.38046,35.99732 7.70456,68.59225 7.70456,68.59225 0,0 24.42979,-25.76825 30.81025,-61.76557 6.38046,-35.99732 -7.70457,-68.59225 -7.70457,-68.59225 0,0 -24.42979,25.76825 -30.81024,61.76557 z"
       inkscape:connector-curvature="0"
       style="opacity:0.2" />
    <path
       id="path16"
       transform="translate(-262,-112)"
       d="m 383.71766,438.97122 c 34.33494,12.555 68.83676,4.498 68.83676,4.498 0,0 -21.16612,-28.41279 -55.50106,-40.96784 -34.33494,-12.55505 -68.83675,-4.498 -68.83675,-4.498 0,0 21.16611,28.41279 55.50105,40.96784 z"
       inkscape:connector-curvature="0"
       style="opacity:0.2" />
    <path
       id="path18"
       transform="translate(-262,-112)"
       d="m 377.89534,668.333 c 24.066,8.80008 48.28314,3.0594 48.28314,3.0594 0,0 -14.80161,-20.0084 -38.86762,-28.8085 -24.06601,-8.8001 -48.28314,-3.0594 -48.28314,-3.0594 0,0 14.80161,20.00842 38.86762,28.8085 z"
       inkscape:connector-curvature="0"
       style="opacity:0.2" />
    <circle
       id="circle20"
       r="131.77014"
       cy="281.0788"
       cx="337.30609"
       style="fill:#d0cde1" />
    <path
       id="path22"
       transform="translate(-262,-112)"
       d="m 547.83337,493.96531 c 0,0 16.47127,78.23852 16.47127,86.47415 0,8.23563 78.23852,45.296 78.23852,45.296 L 712.546,613.382 737.253,539.26129 c 0,0 -41.17817,-61.76725 -41.17817,-86.47415 z"
       inkscape:connector-curvature="0"
       style="fill:#d0cde1" />
    <path
       id="path24"
       transform="translate(-262,-112)"
       d="m 910.78,583.1 -1.12,2.58 A 338.559,338.559 0 0 1 541.35,782.93 q -3.045,-0.54 -6.08,-1.12 a 334.98111,334.98111 0 0 1 -61.14,-18.03 q -4.815,-1.935 -9.56,-4.01 c -2.16,-0.94 -4.32,-1.91 -6.46,-2.91 a 337.59273,337.59273 0 0 1 -55.25,-32.28 l -15.62,-45.31 8.78,-6.69995 18.06,-13.79 19.27,-14.71 5.01,-3.83 75.61,-57.72 5.58,-4.26 39.3,-30 0.01,-0.01 c 0,0 42.5,69.25 104.27,48.66 61.77,-20.59 60.42,-79.63 60.42,-79.63 z"
       inkscape:connector-curvature="0"
       style="fill:#2f2e41" />
    <path
       id="path26"
       transform="translate(-262,-112)"
       d="m 485.03538,286.916 c 0,0 41.83653,-90.64581 122.02321,-69.72755 80.18668,20.91826 125.50958,52.29566 128.996,83.67306 3.48642,31.3774 -1.74319,78.44348 -1.74319,78.44348 0,0 -8.716,-64.498 -64.498,-50.55247 -55.782,13.94553 -142.94147,3.48638 -142.94147,3.48638 L 512.9264,457.74849 c 0,0 -15.6887,-22.66145 -33.12058,-8.71594 C 462.37394,462.97806 429.25335,314.807 485.03538,286.916 Z"
       inkscape:connector-curvature="0"
       style="fill:#2f2e41" />
    <path
       id="path28"
       transform="translate(-262,-112)"
       d="m 474.13,763.78 q -4.815,-1.935 -9.56,-4.01 c -2.16,-0.94 -4.32,-1.91 -6.46,-2.91 a 338.835,338.835 0 0 1 -87.59,-58.7 c 9.19,-12.52 16.72,-18.89 16.72,-18.89 h 61.77 l 9.26,31.14 z"
       inkscape:connector-curvature="0"
       style="fill:#2f2e41" />
    <path
       id="path30"
       transform="translate(-262,-112)"
       d="m 856.67,576.32 52.99,9.36 a 337.94434,337.94434 0 0 1 -56.76,88.57 z"
       inkscape:connector-curvature="0"
       style="fill:#2f2e41" />
  </g>
</svg>
