<?xml version="1.0" encoding="UTF-8" standalone="no"?>
<svg
   xmlns:dc="http://purl.org/dc/elements/1.1/"
   xmlns:cc="http://creativecommons.org/ns#"
   xmlns:rdf="http://www.w3.org/1999/02/22-rdf-syntax-ns#"
   xmlns:svg="http://www.w3.org/2000/svg"
   xmlns="http://www.w3.org/2000/svg"
   xmlns:xlink="http://www.w3.org/1999/xlink"
   xmlns:sodipodi="http://sodipodi.sourceforge.net/DTD/sodipodi-0.dtd"
   xmlns:inkscape="http://www.inkscape.org/namespaces/inkscape"
   data-name="Layer 1"
   width="1124.67665"
   height="770.76802"
   viewBox="0 0 1124.67665 770.76802"
   version="1.1"
   id="svg202"
   sodipodi:docname="undraw_firmware_jw-6-u.svg"
   inkscape:version="0.92.4 (5da689c313, 2019-01-14)">
  <metadata
     id="metadata206">
    <rdf:RDF>
      <cc:Work
         rdf:about="">
        <dc:format>image/svg+xml</dc:format>
        <dc:type
           rdf:resource="http://purl.org/dc/dcmitype/StillImage" />
        <dc:title>Firmware</dc:title>
      </cc:Work>
    </rdf:RDF>
  </metadata>
  <sodipodi:namedview
     pagecolor="#ffffff"
     bordercolor="#666666"
     borderopacity="1"
     objecttolerance="10"
     gridtolerance="10"
     guidetolerance="10"
     inkscape:pageopacity="0"
     inkscape:pageshadow="2"
     inkscape:window-width="1536"
     inkscape:window-height="801"
     id="namedview204"
     showgrid="false"
     showborder="false"
     inkscape:pagecheckerboard="true"
     inkscape:zoom="0.30618811"
     inkscape:cx="-40.232433"
     inkscape:cy="385.384"
     inkscape:window-x="-4"
     inkscape:window-y="-4"
     inkscape:window-maximized="1"
     inkscape:current-layer="svg202" />
  <defs
     id="defs10">
    <linearGradient
       id="f93e83ed-aae3-4939-a31b-02dcc6721011-139"
       x1="969.1404"
       y1="556.31063"
       x2="969.1404"
       y2="137.11639"
       gradientUnits="userSpaceOnUse">
      <stop
         offset="0"
         stop-color="gray"
         stop-opacity="0.25"
         id="stop2" />
      <stop
         offset="0.53514"
         stop-color="gray"
         stop-opacity="0.12"
         id="stop4" />
      <stop
         offset="1"
         stop-color="gray"
         stop-opacity="0.1"
         id="stop6" />
    </linearGradient>
    <linearGradient
       id="e0229f75-5a20-4c1d-bfcf-9b57e2e8c95e-140"
       x1="355.66372"
       y1="691.67079"
       x2="355.66372"
       y2="298.97832"
       xlink:href="#f93e83ed-aae3-4939-a31b-02dcc6721011-139" />
    <linearGradient
       inkscape:collect="always"
       xlink:href="#f93e83ed-aae3-4939-a31b-02dcc6721011-139"
       id="linearGradient1009"
       gradientUnits="userSpaceOnUse"
       x1="969.1404"
       y1="556.31063"
       x2="969.1404"
       y2="137.11639" />
  </defs>
  <title
     id="title12">Firmware</title>
  <rect
     style="opacity:1;fill:#f2f2f2;fill-opacity:1;stroke:#000000;stroke-width:1;stroke-linecap:round;stroke-linejoin:round;stroke-miterlimit:4;stroke-dasharray:none;stroke-opacity:1;paint-order:stroke fill markers"
     id="rect911"
     width="1920"
     height="1080"
     x="-1482.7487"
     y="-205.75586"
     inkscape:export-xdpi="95.950027"
     inkscape:export-ydpi="95.950027" />
  <g
     id="g1007"
     transform="translate(-685.85289,-39.191593)"
     inkscape:export-xdpi="95.896492"
     inkscape:export-ydpi="95.896492">
    <path
       inkscape:export-ydpi="80"
       inkscape:export-xdpi="80"
       id="path14"
       transform="translate(-37.66167,-65.36599)"
       d="m 1098.4735,502.76777 c -37.663,47.88386 -23.031,117.83664 0.9016,173.85981 8.0129,18.75725 17.0759,38.60234 13.695,58.71728 -4.1344,24.59753 -26.0875,42.58378 -49.1367,52.1162 -42.0175,17.37713 -92.29818,13.2358 -130.90626,-10.782 -33.36454,-20.75585 -57.25858,-54.5096 -91.19252,-74.32082 -56.78845,-33.15408 -129.07155,-20.634 -190.73642,2.2038 -43.62646,16.15721 -91.32258,37.16931 -134.67243,20.284 -30.50319,-11.88137 -51.58771,-40.79984 -63.076,-71.45325 -5.5467,-14.79989 -9.57255,-30.81931 -20.1645,-42.55018 -6.297,-6.9741 -14.51488,-11.92428 -22.93319,-16.09827 C 333.38059,556.62972 236.292,577.04065 161.627,534.76664 111.2009,506.21628 78.91826,452.36064 64.62455,396.20364 50.33084,340.04664 51.99574,281.16217 55.62485,223.3284 c 2.579,-41.1 7.20632,-84.97836 33.46752,-116.69913 27.78074,-33.55622 75.45828,-46.03383 118.55249,-39.65584 43.09421,6.37799 82.15542,29.11007 116.51987,55.88457 42.94814,33.46235 82.77835,75.131 135.50913,88.6859 35.91013,9.231 73.68546,4.18165 110.72181,2.43307 61.91628,-2.92324 123.858,3.57752 185.43319,10.69583 58.94744,6.81455 118.32064,14.31464 174.47711,33.49047 39.74036,13.57022 71.60043,38.20328 109.12553,55.4123 24.4602,11.21751 51.1332,14.31495 74.2923,28.60252 28.5284,17.60014 54.6827,48.213 47.3731,84.0348 -6.9496,34.05783 -42.6336,51.14022 -62.6234,76.55488 z"
       inkscape:connector-curvature="0"
       style="opacity:0.1;fill:#009b99" />
    <path
       inkscape:export-ydpi="80"
       inkscape:export-xdpi="80"
       id="path16"
       stroke-miterlimit="10"
       transform="translate(-37.66167,-65.36599)"
       d="m 772.70649,212.225 c 0,0 -60.54073,-17.93019 -64.54073,33.06981 -4,51 16,135 0,162 -16,27 -73.09311,66.00953 -43.04656,69.50476 30.04655,3.49523 45.04656,8.49524 36.04656,26.49524 -9,18 -56,35 -46,48 10,13 15,29 5,45 -10,16 -45,26 -39,37 6,11 28,17 17,29 -11,12 -42.88811,39.29611 -30.444,39.14806"
       inkscape:connector-curvature="0"
       style="fill:none;stroke:#535461;stroke-width:3;stroke-miterlimit:10" />
    <rect
       inkscape:export-ydpi="80"
       inkscape:export-xdpi="80"
       id="rect18"
       rx="12.9697"
       height="71.240334"
       width="153.61197"
       y="112.88104"
       x="682.8421"
       style="fill:#009b99" />
    <rect
       inkscape:export-ydpi="80"
       inkscape:export-xdpi="80"
       id="rect20"
       height="1.33576"
       width="129.12309"
       y="173.18753"
       x="695.08655"
       style="opacity:0.1" />
    <rect
       inkscape:export-ydpi="80"
       inkscape:export-xdpi="80"
       id="rect22"
       height="48.97773"
       width="129.12309"
       y="124.01234"
       x="695.08655"
       style="opacity:0.3" />
    <circle
       inkscape:export-ydpi="80"
       inkscape:export-xdpi="80"
       id="circle24"
       r="17.81008"
       cy="149.52335"
       cx="725.14105"
       style="opacity:0.1" />
    <circle
       inkscape:export-ydpi="80"
       inkscape:export-xdpi="80"
       id="circle26"
       r="17.81008"
       cy="149.52335"
       cx="794.15515"
       style="opacity:0.1" />
    <rect
       inkscape:export-ydpi="80"
       inkscape:export-xdpi="80"
       id="rect28"
       height="15.58769"
       width="26.713739"
       y="184.11937"
       x="746.28967"
       style="fill:#009b99" />
    <rect
       inkscape:export-ydpi="80"
       inkscape:export-xdpi="80"
       id="rect30"
       height="89.050423"
       width="111.31302"
       y="195.25269"
       x="703.99158"
       style="fill:#009b99" />
    <rect
       inkscape:export-ydpi="80"
       inkscape:export-xdpi="80"
       id="rect32"
       height="11.1313"
       width="115.76554"
       y="302.11319"
       x="701.76532"
       style="fill:#009b99" />
    <polygon
       inkscape:export-ydpi="80"
       inkscape:export-xdpi="80"
       id="polygon34"
       points="720.689,353.317 720.689,373.353 720.689,384.485 720.689,391.164 740.725,391.164 740.725,384.485 740.725,373.353 740.725,353.317 740.725,339.96 740.725,324.376 720.689,324.376 720.689,339.96 "
       style="fill:#009b99" />
    <polygon
       inkscape:export-ydpi="80"
       inkscape:export-xdpi="80"
       id="polygon36"
       points="780.798,339.96 780.798,353.317 780.798,373.353 780.798,384.485 780.798,391.164 800.834,391.164 800.834,384.485 800.834,373.353 800.834,353.317 800.834,339.96 800.834,324.376 780.798,324.376 "
       style="fill:#009b99" />
    <path
       inkscape:export-ydpi="80"
       inkscape:export-xdpi="80"
       id="path38"
       transform="translate(-37.66167,-65.36599)"
       d="m 726.49153,280.65563 v 20.59108 a 30.11851,30.11851 0 0 0 -14.80062,7.13458 35.01353,35.01353 0 0 0 -8.81091,12.91988 65.63157,65.63157 0 0 0 -4.339,19.72228 112.76591,112.76591 0 0 0 1.2317,26.45817 h -22.2623 a 151.97079,151.97079 0 0 1 0.5826,-31.93176 84.74431,84.74431 0 0 1 7.14481,-25.3083 c 6.44972,-13.52806 15.62347,-20.867 23.68306,-24.8534 a 43.73973,43.73973 0 0 1 17.57066,-4.73253 z"
       inkscape:connector-curvature="0"
       style="fill:#009b99" />
    <rect
       inkscape:export-ydpi="80"
       inkscape:export-xdpi="80"
       id="rect40"
       height="15.58382"
       width="20.036341"
       y="324.37579"
       x="720.68854"
       style="opacity:0.3" />
    <rect
       inkscape:export-ydpi="80"
       inkscape:export-xdpi="80"
       id="rect42"
       height="20.036341"
       width="20.036341"
       y="353.31717"
       x="720.68854"
       style="opacity:0.3" />
    <rect
       inkscape:export-ydpi="80"
       inkscape:export-xdpi="80"
       id="rect44"
       height="6.6787801"
       width="20.036341"
       y="384.4848"
       x="720.68854"
       style="opacity:0.3" />
    <rect
       inkscape:export-ydpi="80"
       inkscape:export-xdpi="80"
       id="rect46"
       height="15.58382"
       width="20.036341"
       y="324.37579"
       x="780.79755"
       style="opacity:0.3" />
    <rect
       inkscape:export-ydpi="80"
       inkscape:export-xdpi="80"
       id="rect48"
       height="20.036341"
       width="20.036341"
       y="353.31717"
       x="780.79755"
       style="opacity:0.3" />
    <rect
       inkscape:export-ydpi="80"
       inkscape:export-xdpi="80"
       id="rect50"
       height="6.6787801"
       width="20.036341"
       y="384.4848"
       x="780.79755"
       style="opacity:0.3" />
    <path
       inkscape:export-ydpi="80"
       inkscape:export-xdpi="80"
       id="path52"
       transform="translate(-37.66167,-65.36599)"
       d="m 726.49153,280.65563 v 20.59108 a 30.11851,30.11851 0 0 0 -14.80062,7.13458 l -2.77,-22.99313 a 43.73973,43.73973 0 0 1 17.57062,-4.73253 z"
       inkscape:connector-curvature="0"
       style="opacity:0.3" />
    <path
       inkscape:export-ydpi="80"
       inkscape:export-xdpi="80"
       id="path54"
       transform="translate(-37.66167,-65.36599)"
       d="m 702.88,321.30117 a 65.63157,65.63157 0 0 0 -4.339,19.72228 l -20.448,-5.47359 a 84.74431,84.74431 0 0 1 7.14481,-25.3083 z"
       inkscape:connector-curvature="0"
       style="opacity:0.3" />
    <path
       inkscape:export-ydpi="80"
       inkscape:export-xdpi="80"
       id="path56"
       transform="translate(-37.66167,-65.36599)"
       d="m 868.128,280.65563 v 20.59108 a 30.11855,30.11855 0 0 1 14.80062,7.13458 35.01353,35.01353 0 0 1 8.81091,12.91988 65.63157,65.63157 0 0 1 4.339,19.72228 112.76591,112.76591 0 0 1 -1.2317,26.45817 h 22.26229 a 151.97018,151.97018 0 0 0 -0.58259,-31.93176 84.74431,84.74431 0 0 0 -7.14481,-25.3083 c -6.44973,-13.52806 -15.62347,-20.867 -23.68306,-24.8534 A 43.73977,43.73977 0 0 0 868.128,280.65563 Z"
       inkscape:connector-curvature="0"
       style="fill:#009b99" />
    <path
       inkscape:export-ydpi="80"
       inkscape:export-xdpi="80"
       id="path58"
       transform="translate(-37.66167,-65.36599)"
       d="m 868.128,280.65563 v 20.59108 a 30.11855,30.11855 0 0 1 14.80062,7.13458 l 2.77,-22.99313 A 43.73977,43.73977 0 0 0 868.128,280.65563 Z"
       inkscape:connector-curvature="0"
       style="opacity:0.3" />
    <path
       inkscape:export-ydpi="80"
       inkscape:export-xdpi="80"
       id="path60"
       transform="translate(-37.66167,-65.36599)"
       d="m 891.73955,321.30117 a 65.63157,65.63157 0 0 1 4.339,19.72228 l 20.448,-5.47359 a 84.74431,84.74431 0 0 0 -7.14481,-25.3083 z"
       inkscape:connector-curvature="0"
       style="opacity:0.3" />
    <rect
       inkscape:export-ydpi="80"
       inkscape:export-xdpi="80"
       id="rect62"
       height="1.84496"
       width="26.713739"
       y="184.11937"
       x="746.28967"
       style="opacity:0.1" />
    <path
       inkscape:export-ydpi="80"
       inkscape:export-xdpi="80"
       id="path64"
       transform="translate(-37.66167,-65.36599)"
       d="M 854.94437,276.48527 V 313.768 a 7.76813,7.76813 0 0 1 -2.06983,-5.2845 v -26.71885 a 7.75545,7.75545 0 0 1 2.06983,-5.27938 z"
       inkscape:connector-curvature="0"
       style="opacity:0.1" />
    <path
       inkscape:export-ydpi="80"
       inkscape:export-xdpi="80"
       id="path66"
       transform="translate(-37.66167,-65.36599)"
       d="m 742.04856,278.94352 v 27.90966 a 7.76037,7.76037 0 0 1 -2.07495,4.7223 v -37.35426 a 7.76042,7.76042 0 0 1 2.07495,4.7223 z"
       inkscape:connector-curvature="0"
       style="opacity:0.1" />
    <rect
       inkscape:export-ydpi="80"
       inkscape:export-xdpi="80"
       id="rect68"
       height="1.31857"
       width="100.18033"
       y="284.30478"
       x="709.55896"
       style="opacity:0.1" />
    <rect
       inkscape:export-ydpi="80"
       inkscape:export-xdpi="80"
       id="rect70"
       height="1.02214"
       width="48.976028"
       y="313.2468"
       x="707.33069"
       style="opacity:0.1" />
    <rect
       inkscape:export-ydpi="80"
       inkscape:export-xdpi="80"
       id="rect72"
       height="1.02214"
       width="48.976028"
       y="313.2468"
       x="760.76324"
       style="opacity:0.1" />
    <rect
       inkscape:export-ydpi="80"
       inkscape:export-xdpi="80"
       id="rect74"
       height="65.928284"
       width="7.66608"
       y="46.952759"
       x="712.79401"
       style="fill:#009b99" />
    <rect
       inkscape:export-ydpi="80"
       inkscape:export-xdpi="80"
       id="rect76"
       height="65.928284"
       width="7.66608"
       y="46.952759"
       x="800.69843"
       style="fill:#009b99" />
    <circle
       inkscape:export-ydpi="80"
       inkscape:export-xdpi="80"
       id="circle78"
       r="8.68822"
       cy="47.463829"
       cx="716.37152"
       style="opacity:0.1" />
    <circle
       inkscape:export-ydpi="80"
       inkscape:export-xdpi="80"
       id="circle80"
       r="8.68822"
       cy="46.952759"
       cx="716.37152"
       style="fill:#009b99" />
    <circle
       inkscape:export-ydpi="80"
       inkscape:export-xdpi="80"
       id="circle82"
       r="8.68822"
       cy="47.463829"
       cx="804.78699"
       style="opacity:0.1" />
    <circle
       inkscape:export-ydpi="80"
       inkscape:export-xdpi="80"
       id="circle84"
       r="8.68822"
       cy="46.952759"
       cx="804.78699"
       style="fill:#009b99" />
    <path
       inkscape:export-ydpi="80"
       inkscape:export-xdpi="80"
       id="path86"
       transform="translate(-37.66167,-65.36599)"
       d="m 661.66668,494.2905 c -3.41787,3.42238 -4.19751,8.12253 -5.412,12.48071 -3.4675,12.44329 -11.63041,23.92156 -23.00767,32.35222 -8.33384,6.17546 -19.50612,13.01306 -17.53059,22.22695 0.47206,2.20169 1.71953,4.25648 2.04732,6.47678 1.41875,9.61007 -13.27224,14.67361 -18.95914,23.08309 -4.2364,6.26454 -3.10423,14.02542 -1.84528,21.161 1.54091,8.7337 3.40507,18.0518 10.57068,24.48174 1.93329,1.7348 4.2379,3.24066 5.58688,5.33294 3.02253,4.688 0.39547,10.83231 3.143,15.63954 3.66382,6.4105 15.20266,6.68853 21.899,2.36614 6.69634,-4.32239 9.79107,-11.42845 12.75844,-18.091 8.02019,-18.0074 17.88023,-36.0738 34.54914,-49.18669 15.98194,-12.57245 39.23137,-22.32607 41.97365,-40.62648 1.17584,-7.84687 -1.803,-16.44618 2.74685,-23.35942 2.15008,-3.26694 5.74408,-5.68777 8.17808,-8.80939 7.2512,-9.29973 1.85243,-22.753 -8.76461,-29.35736 -16.03105,-9.9711 -53.9906,-10.13227 -67.93375,3.82923 z"
       inkscape:connector-curvature="0"
       style="opacity:0.5;fill:#dee3f3" />
    <rect
       inkscape:export-ydpi="80"
       inkscape:export-xdpi="80"
       id="rect88"
       transform="rotate(-17.35148,675.64389,266.02134)"
       height="9"
       width="74"
       y="170.7948"
       x="871.66577"
       style="fill:#009b99" />
    <path
       inkscape:export-ydpi="80"
       inkscape:export-xdpi="80"
       id="path90"
       transform="translate(-37.66167,-65.36599)"
       d="m 974.08652,494.31071 c 0,0 -38.72378,-7.74476 -49.05012,-18.0711 -10.32634,-10.32634 -56.79488,-28.39744 -61.958,-15.48951 -5.16312,12.90793 -69.7028,56.79487 -25.81585,64.53963 43.88695,7.74476 103.26341,10.32634 116.17134,5.16317 12.90793,-5.16317 20.65263,-36.14219 20.65263,-36.14219 z"
       inkscape:connector-curvature="0"
       style="fill:#a8a8a8" />
    <path
       inkscape:export-ydpi="80"
       inkscape:export-xdpi="80"
       id="path92"
       transform="translate(-37.66167,-65.36599)"
       d="m 837.26249,520.49418 c 43.88694,7.74485 103.26337,10.3264 116.17132,5.1632 9.83009,-3.932 16.66076,-22.82408 19.36172,-31.61589 0.8174,0.17386 1.291,0.26918 1.291,0.26918 0,0 -7.74474,30.979 -20.65269,36.14219 -12.90795,5.16319 -72.28438,2.58165 -116.17132,-5.1632 -12.66842,-2.23559 -16.29128,-7.48581 -14.92655,-14.13 1.08313,4.33504 5.49723,7.67056 14.92652,9.33452 z"
       inkscape:connector-curvature="0"
       style="opacity:0.2" />
    <path
       inkscape:export-ydpi="80"
       inkscape:export-xdpi="80"
       id="path94"
       transform="translate(-37.66167,-65.36599)"
       d="m 1060.0825,156.703 a 11.375,11.375 0 0 0 -3.2046,-4.44114 c -10.3898,-9.47074 -27.1972,-6.59983 -40.0987,-12.38494 -2.972,-1.33265 -6.0209,-3.18145 -9.2479,-2.67488 -4.5064,0.70742 -8.69618,5.83763 -12.62528,3.56146 l 0.28131,0.857 c -0.0939,-0.046 -0.18775,-0.0922 -0.28131,-0.14638 q 1.44481,4.40089 2.88958,8.80175 c 1.10937,3.37913 2.279,6.85663 4.4367,9.67046 a 25.31872,25.31872 0 0 0 6.1228,42.11185 c 0.1362,0.29453 0.2715,0.5904 0.403,0.88918 0.1223,0.0551 0.2485,0.10287 0.3718,0.15622 a 29.56234,29.56234 0 0 1 1.9069,6.131 c -3.3439,0.46237 -9.1735,4.16 -14.90805,9.62067 l -11.46666,-0.39216 a 37.499,37.499 0 0 1 -20.60173,-7.00417 L 929.772,186.80748 a 11.47649,11.47649 0 0 0 -6.57006,2.90392 c -4.25788,-4.43642 -7.87134,-9.07134 -7.56366,-11.78621 0,0 -15.94574,-29.84448 -21.74419,-14.92224 -5.79845,14.92224 10.87209,30.55505 10.87209,30.55505 l 10.57535,13.70032 a 57.63458,57.63458 0 0 0 -0.79046,7.26188 c 13.04652,14.92224 58.70932,28.42332 58.70932,28.42332 l 7.12035,0.3447 c 0.0145,0.13072 0.0272,0.24119 0.0397,0.34983 a 24.24391,24.24391 0 0 0 -0.63681,5.70071 c 0.004,0.27558 0.009,0.56443 0.0141,0.853 -0.002,0.18918 -0.017,0.37954 -0.0141,0.5682 0.3624,23.80453 3.624,96.63928 3.624,96.63928 0.63487,-0.2829 1.29,-0.54161 1.95725,-0.78535 l -0.50764,6.47 c 0,0 -30.44187,4.2635 -52.91087,12.79049 -22.469,8.52699 -23.1938,18.47516 -23.1938,18.47516 v 87.78051 c -6.41965,3.29364 -16.54566,7.62246 -21.74419,5.30586 -5.64282,-2.51458 -8.74077,-0.40183 -9.3007,1.80352 v 0 9e-5 a 2.7998,2.7998 0 0 0 -0.0248,1.32571 l 0.007,0.027 a 2.37642,2.37642 0 0 0 0.21615,0.56256 l 0.022,0.0415 a 2.2572,2.2572 0 0 0 0.38262,0.5031 c 2.17442,2.13175 49.28684,20.60691 60.15893,17.76457 a 7.515,7.515 0 0 0 0.98533,-0.33169 c 0.10449,-0.0434 0.19753,-0.10054 0.29852,-0.1482 0.20124,-0.095 0.40456,-0.18732 0.59218,-0.29848 0.112,-0.0664 0.21235,-0.14624 0.31963,-0.21815 0.16266,-0.109 0.3286,-0.21408 0.4806,-0.33525 0.10587,-0.0845 0.20076,-0.181 0.30162,-0.27111 0.13967,-0.12478 0.28242,-0.24591 0.41271,-0.38106 0.095,-0.0985 0.18,-0.2077 0.27012,-0.31157 0.12307,-0.14182 0.24857,-0.28083 0.36275,-0.432 0.0822,-0.1089 0.15568,-0.22656 0.23341,-0.34 0.10953,-0.15982 0.22075,-0.31782 0.32166,-0.48636 0.0694,-0.1161 0.13139,-0.23945 0.1969,-0.35945 0.0975,-0.17847 0.1958,-0.3559 0.28468,-0.54248 0.0571,-0.12 0.1079,-0.24557 0.1616,-0.36869 0.0863,-0.1976 0.17249,-0.395 0.25022,-0.60021 0.0457,-0.12066 0.0861,-0.24561 0.12886,-0.36874 0.0758,-0.2178 0.15064,-0.436 0.21775,-0.66079 0.0347,-0.11662 0.0653,-0.2362 0.0978,-0.35455 0.066,-0.23993 0.13019,-0.4809 0.18722,-0.72733 0.0253,-0.10933 0.0473,-0.22054 0.0709,-0.331 0.056,-0.26231 0.10944,-0.52591 0.1562,-0.794 0.0172,-0.0989 0.0322,-0.19881 0.0482,-0.29843 0.0461,-0.28629 0.0889,-0.57384 0.12546,-0.86494 0.0104,-0.0834 0.0194,-0.16719 0.0291,-0.25094 0.0361,-0.31166 0.0683,-0.62437 0.0945,-0.93971 0.005,-0.0658 0.0101,-0.13163 0.0151,-0.19756 q 0.0387,-0.50508 0.0626,-1.01278 c 0.002,-0.0453 0.004,-0.0904 0.006,-0.13571 q 0.0227,-0.54282 0.0301,-1.08531 l 7.1e-4,-0.0685 a 59.50032,59.50032 0 0 0 -1.39936,-12.60408 v 0 l 2.63034,-74.78366 a 407.78851,407.78851 0 0 0 42.65347,-1.57114 l 1.55972,35.67912 c 0,0 0,23.44924 7.97287,34.108 6.82324,9.12182 14.70714,49.46454 16.83914,60.91076 -2.9296,5.58517 -8.5326,12.49184 -18.28875,12.27929 0,0 -18.35781,-1.58711 -17.32223,3.46231 l 0.002,0.009 a 2.60307,2.60307 0 0 0 0.11519,0.387 l 0.0119,0.0329 a 3.58574,3.58574 0 0 0 0.19912,0.42278 l 0.0167,0.0283 c 0.0731,0.13041 0.15868,0.26495 0.25393,0.40261 0.0194,0.0281 0.0383,0.0561 0.0587,0.0845 0.10684,0.14889 0.22368,0.30094 0.3571,0.45842 l 0.0334,0.0377 c 0.12215,0.14256 0.25778,0.28937 0.40244,0.439 0.0399,0.0414 0.0803,0.0829 0.12206,0.12482 0.16408,0.1649 0.33674,0.33248 0.52861,0.50609 9.42248,8.527 64.50778,9.94816 64.50778,9.94816 l -10e-5,-0.0328 -10e-5,-0.022 -7e-4,-0.10643 -2e-4,-0.031 c -5e-4,-0.054 -0,-0.12253 -0,-0.19821 l -4e-4,-0.0291 c -0.032,-2.46662 -0.3597,-15.41546 -3.6595,-25.16129 h 0.764 c 0,0 -7.9729,-71.76889 -14.4962,-80.29588 0,0 -1.7333,-37.84271 2.1788,-61.55963 0.2402,-0.0871 0.4832,-0.17249 0.7205,-0.26109 18.2724,-6.82436 19.5692,-23.63109 17.6872,-35.97955 3.4567,1.11085 5.5066,1.87156 5.5066,1.87156 0,0 -0.063,-0.537 -0.1811,-1.48747 0.1155,0.042 0.1811,0.0663 0.1811,0.0663 0,0 -0.3488,-2.25648 -0.9221,-5.77913 -1.3067,-9.6826 -3.8399,-26.60383 -6.5357,-34.59256 -0.4354,-1.75625 -0.8531,-3.25721 -1.2399,-4.395 a 75.11839,75.11839 0 0 1 -3.1913,-14.76064 174.94331,174.94331 0 0 1 -1.1199,-19.57339 187.88465,187.88465 0 0 1 2.0036,-26.11171 c 1.1067,-7.55207 2.1029,-16.14139 2.0188,-22.13906 a 29.522,29.522 0 0 0 -0.436,-6.23807 c -0.968,-4.4284 -5.2392,-7.3079 -9.6811,-9.14 -0.2861,-0.118 -0.5791,-0.215 -0.8681,-0.32463 0.1081,-1.67852 0.2499,-3.58037 0.4333,-5.58565 a 4.77487,4.77487 0 0 0 3.6939,0.748 c 1.9094,-0.41809 3.2788,-2.01161 4.4994,-3.51063 6.4239,-7.88975 13.0203,-16.11371 15.4876,-25.91476 a 55.99053,55.99053 0 0 0 1.3582,-13.344 q 0,-0.36782 0,-0.73747 a 14.51225,14.51225 0 0 0 -0.5817,-4.98224 z"
       style="fill:url(#linearGradient1009)"
       inkscape:connector-curvature="0" />
    <path
       inkscape:export-ydpi="80"
       inkscape:export-xdpi="80"
       id="path96"
       transform="translate(-37.66167,-65.36599)"
       d="m 1001.5944,195.164 c 0,0 9.7326,14.59881 7.647,21.55062 -2.0855,6.95181 22.941,2.78072 22.941,2.78072 0,0 0.6952,-27.11206 5.5615,-33.36869 4.8662,-6.25663 -36.1495,9.03735 -36.1495,9.03735 z"
       inkscape:connector-curvature="0"
       style="fill:#f7c4a7" />
    <path
       inkscape:export-ydpi="80"
       inkscape:export-xdpi="80"
       id="path98"
       transform="translate(-37.66167,-65.36599)"
       d="m 937.29016,204.549 c 0,0 -20.16025,-16.68435 -19.46507,-22.941 0,0 -15.294,-29.19761 -20.85544,-14.5988 -5.56144,14.59881 10.42772,29.8928 10.42772,29.8928 l 19.46507,25.7217 z"
       inkscape:connector-curvature="0"
       style="fill:#f7c4a7" />
    <path
       inkscape:export-ydpi="80"
       inkscape:export-xdpi="80"
       id="path100"
       transform="translate(-37.66167,-65.36599)"
       d="m 916.78232,466.28467 c 0,0 -18.7699,11.81808 -26.41689,8.34218 -7.64699,-3.4759 -10.42772,2.08554 -8.34217,4.17108 2.08555,2.08554 47.27232,20.16026 57.7,17.37953 10.42768,-2.78073 5.12414,-25.553 5.12414,-25.553 z"
       inkscape:connector-curvature="0"
       style="fill:#535461" />
    <path
       inkscape:export-ydpi="80"
       inkscape:export-xdpi="80"
       id="path102"
       transform="translate(-37.66167,-65.36599)"
       d="m 1016.1932,517.0329 c 0,0 -4.5187,19.11748 -20.16023,18.76989 0,0 -23.63616,-2.08554 -14.5988,6.25663 9.03736,8.34217 61.87113,9.73254 61.87113,9.73254 0,0 0,-28.50243 -9.7325,-34.75906 -9.7326,-6.25663 -17.3796,0 -17.3796,0 z"
       inkscape:connector-curvature="0"
       style="fill:#535461" />
    <path
       inkscape:export-ydpi="80"
       inkscape:export-xdpi="80"
       id="path104"
       transform="translate(-37.66167,-65.36599)"
       d="m 987.6908,382.16775 2.08554,48.66268 c 0,0 0,22.941 7.647,33.3687 7.64696,10.4277 16.68436,62.5663 16.68436,62.5663 h 26.4169 c 0,0 -7.647,-70.21329 -13.9036,-78.55547 0,0 -2.7808,-61.87112 6.9518,-75.77475 z"
       inkscape:connector-curvature="0"
       style="fill:#575988" />
    <path
       inkscape:export-ydpi="80"
       inkscape:export-xdpi="80"
       id="path106"
       transform="translate(-37.66167,-65.36599)"
       d="m 987.6908,382.16775 2.08554,48.66268 c 0,0 0,22.941 7.647,33.3687 7.64696,10.4277 16.68436,62.5663 16.68436,62.5663 h 26.4169 c 0,0 -7.647,-70.21329 -13.9036,-78.55547 0,0 -2.7808,-61.87112 6.9518,-75.77475 z"
       inkscape:connector-curvature="0"
       style="opacity:0.1" />
    <path
       transform="translate(-37.66167,-65.36599)"
       inkscape:export-ydpi="80"
       inkscape:export-xdpi="80"
       id="path108"
       d="m 1042.6101,338.37134 c 0,0 15.9892,38.235 -13.2084,49.35786 -29.1976,11.12286 -82.03141,9.73254 -82.03141,9.73254 l -2.78073,80.641 c 0,0 -32.67351,4.17109 -33.36869,-6.25663 v -88.288 c 0,0 0.69518,-9.73253 22.24579,-18.07471 21.55061,-8.34218 50.74823,-12.51326 50.74823,-12.51326 l 1.39036,-18.07471 z"
       inkscape:connector-curvature="0"
       style="fill:#575988" />
    <path
       inkscape:export-ydpi="80"
       inkscape:export-xdpi="80"
       id="path110"
       transform="translate(-37.66167,-65.36599)"
       d="m 1016.991,212.41522 a 33.26594,33.26594 0 0 1 16.3338,2.30935 c 4.2603,1.79239 8.357,4.60949 9.2854,8.94187 1.0994,5.13087 -0.1196,16.63764 -1.5181,26.37172 a 181.63475,181.63475 0 0 0 -0.8476,46.08522 c 0.7168,6.38617 1.7052,11.95544 3.0608,14.44071 4.1711,7.647 8.3422,43.79641 8.3422,43.79641 0,0 -45.8819,-17.37953 -68.82292,-6.95181 0,0 -3.12832,-71.25607 -3.47591,-94.54464 -0.26914,-18.03255 22.59343,-38.58255 30.24043,-39.27774 4.4812,-0.40738 2.9486,-0.709 7.4019,-1.17109 z"
       inkscape:connector-curvature="0"
       style="opacity:0.1" />
    <path
       inkscape:export-ydpi="80"
       inkscape:export-xdpi="80"
       id="path112"
       transform="translate(-37.66167,-65.36599)"
       d="m 1016.991,211.02486 a 33.26582,33.26582 0 0 1 16.3338,2.30935 c 4.2603,1.79238 8.357,4.60949 9.2854,8.94187 1.0994,5.13087 -0.1196,16.63764 -1.5181,26.37172 a 181.63475,181.63475 0 0 0 -0.8476,46.08522 74.75022,74.75022 0 0 0 3.0608,14.44071 c 3.1284,9.38494 8.3422,43.79641 8.3422,43.79641 0,0 -45.8819,-17.37953 -68.82292,-6.95181 0,0 -3.12832,-71.25607 -3.47591,-94.54464 -0.26914,-18.03255 22.59343,-38.58256 30.24043,-39.27774 4.4812,-0.40739 2.9486,-0.70895 7.4019,-1.17109 z"
       inkscape:connector-curvature="0"
       style="fill:#e14b5a" />
    <path
       inkscape:export-ydpi="80"
       inkscape:export-xdpi="80"
       id="path114"
       transform="translate(-37.66167,-65.36599)"
       d="m 1029.4017,249.38815 -49.3579,-2.78073 c 0,0 -3.14124,-24.19841 3.98389,-23.94986 l 48.84991,1.70406 c 0,0 10.4277,12.51326 -3.4759,25.02653 z"
       inkscape:connector-curvature="0"
       style="opacity:0.1" />
    <path
       inkscape:export-ydpi="80"
       inkscape:export-xdpi="80"
       id="path116"
       transform="translate(-37.66167,-65.36599)"
       d="m 1029.4017,247.99778 -56.3097,-2.78072 c 0,0 -43.79641,-13.20844 -56.30967,-27.80725 0,0 0.69518,-25.7217 14.5988,-27.11206 l 32.8869,24.11706 a 35.50711,35.50711 0 0 0 19.75967,6.85239 l 48.8499,1.70406 c 0,0 10.4277,12.51326 -3.4759,25.02652 z"
       inkscape:connector-curvature="0"
       style="fill:#e14b5a" />
    <path
       inkscape:export-ydpi="80"
       inkscape:export-xdpi="80"
       id="path118"
       transform="translate(-37.66167,-65.36599)"
       d="m 1031.8348,198.29233 c 0.8263,-6.59226 3.8155,-8.77883 5.909,-11.47049 4.8663,-6.25663 -36.1494,9.03735 -36.1494,9.03735 a 73.74254,73.74254 0 0 1 5.5444,10.2286 24.92261,24.92261 0 0 0 10.4448,2.28467 c 6.0471,0 9.9251,-6.50986 14.2512,-10.08013 z"
       inkscape:connector-curvature="0"
       style="opacity:0.1" />
    <circle
       inkscape:export-ydpi="80"
       inkscape:export-xdpi="80"
       id="circle120"
       r="25.02652"
       cy="117.28476"
       cx="979.92194"
       style="fill:#f7c4a7" />
    <path
       inkscape:export-ydpi="80"
       inkscape:export-xdpi="80"
       id="path122"
       transform="translate(-37.66167,-65.36599)"
       d="m 1001.7798,165.10891 c -2.66532,-2.91075 -3.94622,-6.794 -5.15541,-10.55095 l -2.77151,-8.611 c 3.76851,2.22684 7.78702,-2.79219 12.10922,-3.48426 3.0951,-0.49559 6.0194,1.31315 8.8699,2.61691 12.3742,5.65972 28.4947,2.851 38.4598,12.11648 a 11.12289,11.12289 0 0 1 3.0736,4.34488 14.5372,14.5372 0 0 1 0.558,4.90038 55.83429,55.83429 0 0 1 -1.3027,13.05481 c -2.3665,9.58862 -8.6932,17.63432 -14.8546,25.35307 -1.1706,1.46651 -2.4841,3.02553 -4.3154,3.43452 -3.5771,0.79887 -6.345,-3.06778 -7.7295,-6.46145 a 68.75306,68.75306 0 0 1 -4.0333,-13.952 18.28087,18.28087 0 0 0 -1.6518,-5.89664 c -2.1541,-3.81878 -7.4639,-7.43233 -10.6926,-10.39043 -3.1734,-2.9074 -7.5986,-3.2363 -10.5637,-6.47432 z"
       inkscape:connector-curvature="0"
       style="opacity:0.1" />
    <path
       inkscape:export-ydpi="80"
       inkscape:export-xdpi="80"
       id="path124"
       transform="translate(-37.66167,-65.36599)"
       d="m 1001.7798,164.41373 c -2.66532,-2.91075 -3.94622,-6.794 -5.15541,-10.55095 l -2.77151,-8.611 c 3.76851,2.22684 7.78702,-2.79219 12.10922,-3.48427 3.0951,-0.49558 6.0194,1.31316 8.8699,2.61692 12.3742,5.65972 28.4947,2.851 38.4598,12.11648 a 11.12289,11.12289 0 0 1 3.0736,4.34488 14.5372,14.5372 0 0 1 0.558,4.90038 55.83429,55.83429 0 0 1 -1.3027,13.05481 c -2.3665,9.58862 -8.6932,17.63432 -14.8546,25.35306 -1.1706,1.46652 -2.4841,3.02553 -4.3154,3.43453 -3.5771,0.79887 -6.345,-3.06778 -7.7295,-6.46145 a 68.75324,68.75324 0 0 1 -4.0333,-13.952 18.28087,18.28087 0 0 0 -1.6518,-5.89664 c -2.1541,-3.81878 -7.4639,-7.43233 -10.6926,-10.39044 -3.1734,-2.90739 -7.5986,-3.2363 -10.5637,-6.47431 z"
       inkscape:connector-curvature="0"
       style="fill:#632652" />
    <ellipse
       inkscape:export-ydpi="80"
       inkscape:export-xdpi="80"
       id="ellipse126"
       ry="4.5186801"
       rx="2.0855401"
       cy="120.06549"
       cx="986.52612"
       style="fill:#f7c4a7" />
    <path
       inkscape:export-ydpi="80"
       inkscape:export-xdpi="80"
       id="path128"
       transform="translate(-37.66167,-65.36599)"
       d="m 1036.7011,306.04541 c 0,0 -1.3904,4.17109 -8.3422,3.47591 -6.9518,-0.69518 -27.1121,-2.08555 -27.1121,0"
       inkscape:connector-curvature="0"
       style="opacity:0.1" />
    <path
       inkscape:export-ydpi="80"
       inkscape:export-xdpi="80"
       id="path130"
       transform="translate(-37.66167,-65.36599)"
       d="m 981.43417,541.36424 a 5.88868,5.88868 0 0 1 -2.02271,-2.90063 c -0.18224,0.9033 0.376,2.07578 2.02271,3.59581 9.03735,8.34217 61.87113,9.73254 61.87113,9.73254 0,0 0,-0.246 -0.01,-0.6954 -0.3336,-0.009 -52.85471,-1.41667 -61.86333,-9.73232 z"
       inkscape:connector-curvature="0"
       style="opacity:0.5;fill:#ffffff" />
    <path
       inkscape:export-ydpi="80"
       inkscape:export-xdpi="80"
       id="path132"
       transform="translate(-37.66167,-65.36599)"
       d="m 939.72329,494.7871 c -10.42771,2.78072 -55.61449,-15.294 -57.7,-17.37953 a 2.2571,2.2571 0 0 1 -0.57837,-1.01629 2.49914,2.49914 0 0 0 0.57837,2.40665 c 2.08554,2.08555 47.27232,20.16026 57.7,17.37953 5.36725,-1.43126 6.56328,-8.1573 6.46361,-14.34986 -0.10179,5.7747 -1.49652,11.63495 -6.46361,12.9595 z"
       inkscape:connector-curvature="0"
       style="opacity:0.5;fill:#ffffff" />
    <path
       inkscape:export-ydpi="80"
       inkscape:export-xdpi="80"
       id="path134"
       transform="translate(-37.66167,-65.36599)"
       d="M 543.15947,548.06642 A 298.40742,298.40742 0 0 1 538.6829,507.017 v -7e-5 a 54.98956,54.98956 0 0 0 -38.69748,-50.21842 c -3.949,-1.21493 -8.3042,-2.35052 -13.10626,-3.37044 -42.1284,-8.94764 -54.92591,-1.13536 -56.37994,-0.1083 a 54.0178,54.0178 0 0 1 -3.18935,-6.96572 c -0.0715,-0.24351 -0.13807,-0.49115 -0.20648,-0.7373 a 53.93276,53.93276 0 0 0 14.40969,-32.49392 c 7.02685,-7.12555 11.13238,-15.722 11.13238,-24.97765 0,-7.96014 -3.03952,-15.43152 -8.3594,-21.90028 V 353.6836 A 54.70527,54.70527 0 0 0 389.5808,298.97832 h -4.43643 a 54.70528,54.70528 0 0 0 -54.70529,54.70528 v 13.5595 a 33.95949,33.95949 0 0 0 -7.56325,20.90207 c 0,9.06125 3.9379,17.48925 10.69652,24.52533 a 53.94221,53.94221 0 0 0 15.0138,33.54527 c 0.29593,2.05389 0.59968,4.26551 0.89923,6.59743 l -75.37268,15.94042 c 0,0 -29.05884,1.1942 -47.768,39.80664 -15.83867,32.68828 -47.36691,116.72511 -56.669,141.74362 h -5e-5 l -7e-5,2.6e-4 c -1.68577,4.534 -2.64281,7.13292 -2.64281,7.13292 0,0 0.30847,-0.31192 0.90053,-0.84494 -0.58536,1.5814 -0.90053,2.4372 -0.90053,2.4372 0,0 0.45755,-0.46245 1.32685,-1.223 -1.32015,10.47017 -1.50858,28.44058 12.2074,30.67994 11.49733,1.87712 41.112,2.64774 63.49158,2.96412 v 0.0214 h 1.55214 c 14.83,0.199 26.11347,0.199 26.11347,0.199 v -0.199 h 240.63122 v -2.46607 a 16.58627,16.58627 0 0 0 -1.326,-6.518 q 0.1734,-0.19987 0.33548,-0.40224 a 13.20763,13.20763 0 0 1 2.49679,5.78962 5.7963,5.7963 0 0 1 -0.113,0.61115 c 0,0 0.0496,-0.12777 0.14178,-0.36836 a 6.19557,6.19557 0 0 1 -0.14178,1.96061 c 0,0 30.8728,-79.5478 30.54283,-127.04521 a 80.4727,80.4727 0 0 0 -1.13206,-14.96685 z M 350.71985,463.5542 a 55.19235,55.19235 0 0 1 -0.76389,-6.86021 l 0.002,-0.0634 c 0.26581,2.23304 0.52287,4.54971 0.76189,6.92365 z m -93.525,170.86235 v 18.95855 l -11.88441,2.53828 z"
       style="fill:url(#e0229f75-5a20-4c1d-bfcf-9b57e2e8c95e-140)"
       inkscape:connector-curvature="0" />
    <path
       inkscape:export-ydpi="80"
       inkscape:export-xdpi="80"
       id="path136"
       d="m 348.46564,241.26343 h 1.1e-4 A 54.70528,54.70528 0 0 1 403.171,295.9687 v 23.3359 H 293.76036 v -23.3359 a 54.70528,54.70528 0 0 1 54.70528,-54.70527 z"
       inkscape:connector-curvature="0"
       style="fill:#e14b5a" />
    <ellipse
       inkscape:export-ydpi="80"
       inkscape:export-xdpi="80"
       id="ellipse138"
       ry="42.84613"
       rx="62.35643"
       cy="326.95569"
       cx="348.84824"
       style="fill:#e14b5a" />
    <path
       inkscape:export-ydpi="80"
       inkscape:export-xdpi="80"
       id="path140"
       transform="translate(-37.66167,-65.36599)"
       d="m 346.533,433.82887 c 0,0 13.00686,68.09475 0,86.45738 -13.00686,18.36263 39.7857,25.63117 39.7857,25.63117 l 54.7053,-19.89285 7.65109,-48.967 c 0,0 -33.28226,-18.74518 -26.39627,-56.6181 z"
       inkscape:connector-curvature="0"
       style="fill:#f7c4a7" />
    <path
       inkscape:export-ydpi="80"
       inkscape:export-xdpi="80"
       id="path142"
       transform="translate(-37.66167,-65.36599)"
       d="m 507.97106,663.36173 c 0,0 3.443,14.91964 -15.30219,17.59752 A 106.0086,106.0086 0 0 1 459.313,680.562 l -4.13453,-37.47565 h 43.61124 z"
       inkscape:connector-curvature="0"
       style="fill:#f7c4a7" />
    <path
       inkscape:export-ydpi="80"
       inkscape:export-xdpi="80"
       id="path144"
       transform="translate(-37.66167,-65.36599)"
       d="m 176.92322,644.26477 c 0,0 -8.27823,33.634 10.467,36.69448 18.74523,3.06048 87.605,3.06044 87.605,3.06044 V 644.234 l -31.1723,6.65782 -29.27135,-28.08088 z"
       inkscape:connector-curvature="0"
       style="fill:#f7c4a7" />
    <path
       inkscape:export-ydpi="80"
       inkscape:export-xdpi="80"
       id="path146"
       transform="translate(-37.66167,-65.36599)"
       d="m 350.54978,455.82577 -73.25924,15.49347 c 0,0 -27.9265,1.14767 -45.90657,38.25548 -17.98007,37.10781 -57.00066,143.07548 -57.00066,143.07548 0,0 33.28226,-33.66482 72.30285,2.29533 l 26.01372,-47.05424 -5.73832,74.59818 h 201.60636 v -35.195 c 0,0 42.081,22.57073 39.02059,35.195 0,0 36.00943,-92.781 28.26476,-134.948 a 286.77727,286.77727 0 0 1 -4.30214,-39.44983 v -6e-5 A 52.8467,52.8467 0 0 0 494.3616,459.83 c -3.79512,-1.16761 -7.9806,-2.25895 -12.59554,-3.23912 -43.22869,-9.18131 -54.32277,0 -54.32277,0 0,0 -8.3737,27.24644 -8.22493,39.59442 0.19128,15.876 -22.57073,26.39628 -22.57073,26.39628 0,0 -33.66482,-8.03365 -35.195,-14.53708 -1.53018,-6.50343 -13.58074,-44.56763 -10.90285,-52.21873 z"
       inkscape:connector-curvature="0"
       style="opacity:0.1" />
    <path
       inkscape:export-ydpi="80"
       inkscape:export-xdpi="80"
       id="path148"
       transform="translate(-37.66167,-65.36599)"
       d="M 350.54978,454.29555 277.29054,469.789 c 0,0 -27.92654,1.14769 -45.90654,38.2555 -17.98,37.10781 -57.00069,143.0755 -57.00069,143.0755 0,0 33.28226,-33.66482 72.30285,2.29533 l 26.01372,-47.05424 -5.73832,74.59818 h 201.60636 v -35.195 c 0,0 42.081,22.57074 39.02059,35.195 0,0 36.00943,-92.781 28.26476,-134.948 a 286.77727,286.77727 0 0 1 -4.30214,-39.44983 v -6e-5 A 52.8467,52.8467 0 0 0 494.3616,458.29985 c -3.79512,-1.16761 -7.9806,-2.25895 -12.59554,-3.23912 -43.22869,-9.18131 -54.32277,0 -54.32277,0 0,0 -8.3737,27.24644 -8.22493,39.59442 0.19128,15.876 -22.57073,26.39628 -22.57073,26.39628 0,0 -33.66482,-8.03365 -35.195,-14.53708 -1.53018,-6.50343 -13.58074,-44.5677 -10.90285,-52.2188 z"
       inkscape:connector-curvature="0"
       style="fill:#575988" />
    <path
       inkscape:export-ydpi="80"
       inkscape:export-xdpi="80"
       id="path150"
       transform="translate(-37.66167,-65.36599)"
       d="m 425.42271,451.04459 a 51.78109,51.78109 0 0 1 -1.99625,-27.16214 l -75.74584,13.38942 c 0,0 1.09333,5.7244 2.329,14.30055 a 52.019,52.019 0 0 0 75.41307,-0.52783 z"
       inkscape:connector-curvature="0"
       style="opacity:0.1" />
    <path
       inkscape:export-ydpi="80"
       inkscape:export-xdpi="80"
       id="path152"
       transform="translate(-37.66167,-65.36599)"
       d="m 438.3461,412.02325 a 52.02746,52.02746 0 0 1 -104.03961,1.26243 c -0.0115,-0.4208 -0.0153,-0.84163 -0.0153,-1.26243 a 52.03941,52.03941 0 0 1 29.166,-46.752 q 2.34124,-1.14192 4.80872,-2.05815 a 52.39855,52.39855 0 0 1 26.798,-2.48661 0.02867,0.02867 0 0 0 0.0191,0.004 51.98725,51.98725 0 0 1 43.14836,47.84613 q 0.1147,1.70999 0.11469,3.4468 z"
       inkscape:connector-curvature="0"
       style="fill:#f7c4a7" />
    <g
       inkscape:export-ydpi="80"
       inkscape:export-xdpi="80"
       id="g158"
       style="opacity:0.1">
      <path
         id="path154"
         transform="translate(-37.66167,-65.36599)"
         d="m 368.19321,364.43382 a 0.767,0.767 0 0 1 0.0727,-0.0459 q -2.4675,0.91239 -4.80871,2.05814 a 52.03939,52.03939 0 0 0 -29.166,46.752 c 0,0.42081 0.004,0.84162 0.0153,1.26243 a 11.55728,11.55728 0 0 0 4.66719,-1.12088 c 12.68553,-5.91816 20.29454,-24.03208 23.28228,-36.664 1.07119,-4.52182 2.09645,-9.61743 5.93729,-12.24179 z"
         inkscape:connector-curvature="0" />
      <path
         id="path156"
         transform="translate(-37.66167,-65.36599)"
         d="m 408.01713,365.89517 a 51.59667,51.59667 0 0 0 -12.93417,-3.99 16.6899,16.6899 0 0 1 9.28845,5.834 23.7861,23.7861 0 0 1 2.84343,5.06875 52.16706,52.16706 0 0 0 -43.75766,0.90674 c 3.267,7.1576 13.39325,11.06348 20.153,13.67634 q 11.10368,4.28655 22.46743,7.83854 -3.34545,-2.71994 -6.6909,-5.43227 7.55166,1.1993 15.10711,2.40243 a 26.16935,26.16935 0 0 0 -1.05456,-8.9055 c 2.87577,2.33234 6.73171,3.114 9.87244,5.09525 5.88753,3.71079 8.33586,10.87224 11.5455,17.04664 a 11.00993,11.00993 0 0 0 3.37413,4.31525 52.049,52.049 0 0 0 -30.2142,-43.85617 z"
         inkscape:connector-curvature="0" />
    </g>
    <path
       inkscape:export-ydpi="80"
       inkscape:export-xdpi="80"
       id="path160"
       transform="translate(-37.66167,-65.36599)"
       d="m 368.19321,363.259 a 0.76683,0.76683 0 0 1 0.0727,-0.0459 q -2.4675,0.91237 -4.80871,2.05813 a 52.0394,52.0394 0 0 0 -29.166,46.752 c 0,0.42081 0.004,0.84163 0.0153,1.26244 a 11.5573,11.5573 0 0 0 4.66719,-1.12089 c 12.68553,-5.91815 20.29454,-24.03208 23.28228,-36.664 1.07119,-4.52185 2.09645,-9.61745 5.93729,-12.24179 z"
       inkscape:connector-curvature="0"
       style="fill:#632652" />
    <path
       inkscape:export-ydpi="80"
       inkscape:export-xdpi="80"
       id="path162"
       transform="translate(-37.66167,-65.36599)"
       d="m 408.01713,364.72032 a 51.59665,51.59665 0 0 0 -12.93417,-3.99 16.68985,16.68985 0 0 1 9.28845,5.834 23.786,23.786 0 0 1 2.84343,5.06874 52.16706,52.16706 0 0 0 -43.75766,0.90674 c 3.267,7.15761 13.39325,11.06348 20.153,13.67634 q 11.10368,4.28655 22.46743,7.83854 -3.34545,-2.71993 -6.6909,-5.43227 7.55166,1.1993 15.10711,2.40243 a 26.16941,26.16941 0 0 0 -1.05456,-8.9055 c 2.87577,2.33234 6.73171,3.114 9.87244,5.09525 5.88753,3.7108 8.33586,10.87224 11.5455,17.04664 a 11.00978,11.00978 0 0 0 3.37413,4.31525 52.049,52.049 0 0 0 -30.2142,-43.85616 z"
       inkscape:connector-curvature="0"
       style="fill:#632652" />
    <path
       inkscape:export-ydpi="80"
       inkscape:export-xdpi="80"
       id="path164"
       transform="translate(-37.66167,-65.36599)"
       d="m 328.3616,403.443 c 0,0 53.55767,-66.56453 115.53154,0 l -5.35577,-14.91963 c 0,0 -29.07416,-42.46358 -49.73212,-33.28227 -20.65796,9.18131 -40.93336,15.68475 -40.93336,15.68475 z"
       inkscape:connector-curvature="0"
       style="opacity:0.1" />
    <path
       inkscape:export-ydpi="80"
       inkscape:export-xdpi="80"
       id="path166"
       transform="translate(-37.66167,-65.36599)"
       d="m 328.3616,402.26811 c 0,0 53.55767,-66.56453 115.53154,0 l -5.35577,-14.91964 c 0,0 -29.07416,-42.46358 -49.73212,-33.28226 -20.65796,9.18132 -40.93336,15.68479 -40.93336,15.68479 z"
       inkscape:connector-curvature="0"
       style="fill:#e14b5a" />
    <path
       inkscape:export-ydpi="80"
       inkscape:export-xdpi="80"
       id="path168"
       transform="translate(-37.66167,-65.36599)"
       d="m 284.3678,545.72614 c 0,0 -11.47664,30.60438 4.59066,58.14833 16.0673,27.54395 -14.15453,39.02058 -14.15453,39.02058"
       inkscape:connector-curvature="0"
       style="opacity:0.1" />
    <path
       inkscape:export-ydpi="80"
       inkscape:export-xdpi="80"
       id="path170"
       transform="translate(-37.66167,-65.36599)"
       d="m 470.28942,518.1822 c 0,0 19.89285,25.24861 6.886,47.81935 -13.00685,22.57074 -12.24175,76.8935 -12.24175,76.8935"
       inkscape:connector-curvature="0"
       style="opacity:0.1" />
    <path
       inkscape:export-ydpi="80"
       inkscape:export-xdpi="80"
       id="path172"
       d="m 229.10859,600.0998 h 221.11669 a 18.36261,18.36261 0 0 1 18.36261,18.36261 v 0 H 210.746 v 0 a 18.36261,18.36261 0 0 1 18.36261,-18.36261 z"
       inkscape:connector-curvature="0"
       style="fill:#535461" />
    <path
       inkscape:export-ydpi="80"
       inkscape:export-xdpi="80"
       id="path174"
       d="m 262.37029,473.85672 h 154.5933 a 39,39 0 0 1 39,39 v 91.45118 h -232.5933 v -91.45118 a 39,39 0 0 1 39,-39 z"
       inkscape:connector-curvature="0"
       style="fill:#535461" />
    <circle
       inkscape:export-ydpi="80"
       inkscape:export-xdpi="80"
       id="circle176"
       r="13.77197"
       cy="544.82062"
       cx="339.47565"
       style="fill:#ffffff" />
    <path
       inkscape:export-ydpi="80"
       inkscape:export-xdpi="80"
       id="path178"
       stroke-miterlimit="10"
       transform="translate(-37.66167,-65.36599)"
       d="m 331.422,372.23282 c 0,0 52.6393,-52.61064 109.41066,-0.95941"
       inkscape:connector-curvature="0"
       style="opacity:0.1;fill:none;stroke:#000000;stroke-miterlimit:10" />
    <rect
       inkscape:export-ydpi="80"
       inkscape:export-xdpi="80"
       id="rect180"
       height="29.95859"
       width="5.2868099"
       y="303.51569"
       x="411.18625"
       style="fill:#6a5c99" />
    <path
       inkscape:export-ydpi="80"
       inkscape:export-xdpi="80"
       id="path182"
       d="m 404.13717,322.90067 v 0 a 18.2101,18.2101 0 0 1 18.2101,18.2101 v 1.17488 a 18.2101,18.2101 0 0 1 -18.2101,18.2101 v 0 z"
       inkscape:connector-curvature="0"
       style="fill:#ffd037" />
    <rect
       inkscape:export-ydpi="80"
       inkscape:export-xdpi="80"
       id="rect184"
       rx="4.1119599"
       height="41.119629"
       width="8.2239304"
       y="321.1384"
       x="400.61264"
       style="fill:#6a5c99" />
    <rect
       inkscape:export-ydpi="80"
       inkscape:export-xdpi="80"
       id="rect186"
       transform="rotate(-180,301.39319,351.76542)"
       height="29.95859"
       width="5.2868099"
       y="369.46912"
       x="317.58063"
       style="fill:#6a5c99" />
    <path
       inkscape:export-ydpi="80"
       inkscape:export-xdpi="80"
       id="path188"
       transform="rotate(180,301.98061,374.96863)"
       d="m 311.70639,388.85408 v 0 a 18.2101,18.2101 0 0 1 18.2101,18.2101 v 1.17488 a 18.2101,18.2101 0 0 1 -18.2101,18.2101 v 0 z"
       inkscape:connector-curvature="0"
       style="fill:#ffd037" />
    <rect
       inkscape:export-ydpi="80"
       inkscape:export-xdpi="80"
       id="rect190"
       transform="rotate(-180,310.49825,374.96863)"
       rx="4.1119599"
       height="41.119629"
       width="8.2239304"
       y="387.0918"
       x="325.21713"
       style="fill:#6a5c99" />
    <path
       inkscape:export-ydpi="80"
       inkscape:export-xdpi="80"
       id="path192"
       transform="translate(-37.66167,-65.36599)"
       d="m 448.2215,336.86 c -7.1584,-14.88425 -22.74882,-32.87968 -56.35657,-34.316 l 0.003,-0.041 -0.40346,0.0192 -0.0262,-0.001 -1.1e-4,0.003 -11.90611,0.567 0.001,0.0583 c -33.38635,1.53678 -48.90377,19.46191 -56.03937,34.29875 a 77.15669,77.15669 0 0 0 -7.38065,32.12242 l 4.11082,-0.10068 4.11081,-0.0944 a 69.96283,69.96283 0 0 1 6.69456,-28.61968 c 9.06433,-18.61455 25.73935,-28.51613 49.56327,-29.42939 l -2.9e-4,-0.007 10.53042,-0.58287 -1.1e-4,0.003 c 23.82392,0.91326 40.49893,10.81484 49.56327,29.42939 a 69.963,69.963 0 0 1 6.69456,28.61967 l 4.11081,0.0944 4.11082,0.10068 A 77.15663,77.15663 0 0 0 448.2215,336.86 Z"
       inkscape:connector-curvature="0"
       style="fill:#ffd037" />
    <rect
       inkscape:export-ydpi="80"
       inkscape:export-xdpi="80"
       id="rect194"
       height="150.56227"
       width="560.77777"
       y="618.70428"
       x="37.61496"
       style="fill:#d6d6e3" />
    <rect
       inkscape:export-ydpi="80"
       inkscape:export-xdpi="80"
       id="rect196"
       height="19.54414"
       width="560.77777"
       y="628.83832"
       x="37.61496"
       style="opacity:0.1" />
    <rect
       inkscape:export-ydpi="80"
       inkscape:export-xdpi="80"
       id="rect198"
       height="19.54414"
       width="636.00409"
       y="616.53271"
       x="0"
       style="fill:#d6d6e3" />
    <path
       inkscape:export-ydpi="80"
       inkscape:export-xdpi="80"
       id="path200"
       stroke-miterlimit="10"
       transform="translate(-37.66167,-65.36599)"
       d="m 473.16576,633.2948 c 0,0 24,44 84,32 60,-12 31,111 31,111 0,0 -9.81716,58.67552 -2.90858,58.33776"
       inkscape:connector-curvature="0"
       style="fill:none;stroke:#535461;stroke-width:3;stroke-miterlimit:10" />
  </g>
</svg>
