<?xml version="1.0" encoding="UTF-8" standalone="no"?>
<svg
   xmlns:dc="http://purl.org/dc/elements/1.1/"
   xmlns:cc="http://creativecommons.org/ns#"
   xmlns:rdf="http://www.w3.org/1999/02/22-rdf-syntax-ns#"
   xmlns:svg="http://www.w3.org/2000/svg"
   xmlns="http://www.w3.org/2000/svg"
   xmlns:sodipodi="http://sodipodi.sourceforge.net/DTD/sodipodi-0.dtd"
   xmlns:inkscape="http://www.inkscape.org/namespaces/inkscape"
   data-name="Layer 1"
   width="809.67538"
   height="462.57748"
   viewBox="0 0 809.67538 462.57748"
   version="1.1"
   id="svg146"
   sodipodi:docname="undraw_working_re_ddwy (1).svg"
   inkscape:version="0.92.4 (5da689c313, 2019-01-14)">
  <metadata
     id="metadata152">
    <rdf:RDF>
      <cc:Work
         rdf:about="">
        <dc:format>image/svg+xml</dc:format>
        <dc:type
           rdf:resource="http://purl.org/dc/dcmitype/StillImage" />
        <dc:title></dc:title>
      </cc:Work>
    </rdf:RDF>
  </metadata>
  <defs
     id="defs150" />
  <sodipodi:namedview
     pagecolor="#ffffff"
     bordercolor="#666666"
     borderopacity="1"
     objecttolerance="10"
     gridtolerance="10"
     guidetolerance="10"
     inkscape:pageopacity="0"
     inkscape:pageshadow="2"
     inkscape:window-width="1536"
     inkscape:window-height="801"
     id="namedview148"
     showgrid="false"
     showborder="false"
     inkscape:pagecheckerboard="true"
     inkscape:zoom="0.25257037"
     inkscape:cx="1336.5806"
     inkscape:cy="362.74518"
     inkscape:window-x="-4"
     inkscape:window-y="-4"
     inkscape:window-maximized="1"
     inkscape:current-layer="svg146" />
  <rect
     style="opacity:1;fill:#f2f2f2;fill-opacity:1;stroke:#000000;stroke-width:1.25061595;stroke-linecap:round;stroke-linejoin:round;stroke-miterlimit:4;stroke-dasharray:none;stroke-opacity:1;paint-order:stroke fill markers"
     id="rect959"
     width="1918.7494"
     height="1078.7494"
     x="-423.51901"
     y="-420.31223"
     inkscape:export-xdpi="96"
     inkscape:export-ydpi="96" />
  <g
     id="g1044"
     transform="matrix(1.4279599,0,0,1.4279599,339.67172,-211.20858)"
     inkscape:export-xdpi="96"
     inkscape:export-ydpi="96">
    <path
       id="path2"
       transform="translate(-195.16231,-218.71126)"
       d="m 328.25,429.03874 v -130 a 7,7 0 1 1 14,0 v 130 a 7,7 0 0 1 -14,0 z"
       inkscape:connector-curvature="0"
       style="fill:#f0f0f0" />
    <path
       id="path4"
       transform="translate(-195.16231,-218.71126)"
       d="m 311.5,429.03874 v -130 a 7,7 0 1 1 14,0 v 130 a 7,7 0 0 1 -14,0 z"
       inkscape:connector-curvature="0"
       style="fill:#f0f0f0" />
    <path
       id="path6"
       transform="translate(-195.16231,-218.71126)"
       d="m 294.75,429.03874 v -130 a 7,7 0 1 1 14,0 v 130 a 7,7 0 0 1 -14,0 z"
       inkscape:connector-curvature="0"
       style="fill:#f0f0f0" />
    <path
       id="path8"
       transform="translate(-195.16231,-218.71126)"
       d="m 927.1543,636.6748 a 24.4405,24.4405 0 0 1 -8.27051,-1.43554 l -0.40918,-0.14746 0.18848,-0.90528 c -4.752,-9.60058 -3.09082,-22.75293 4.25293,-33.56738 6.67675,-9.83105 16.8291,-16.97851 25.78613,-23.28418 a 6.96667,6.96667 0 0 1 10.84765,7.0293 l -3.20312,16.43359 c -2.31152,11.85547 -5.06152,23.07617 -13.2168,30.07324 a 24.904,24.904 0 0 1 -15.97558,5.80371 z"
       inkscape:connector-curvature="0"
       style="fill:#e6e6e6" />
    <path
       id="path10"
       transform="translate(-195.16231,-218.71126)"
       d="m 948.13086,665.07227 a 18.621,18.621 0 0 1 -15.56348,-8.56543 l -0.23242,-0.36133 0.55371,-0.48828 c 1.43262,-7.81836 8.17285,-14.78418 17.22266,-17.78028 8.22558,-2.72265 17.30566,-2.27734 25.31152,-1.88574 v 0 a 5.34914,5.34914 0 0 1 3.32324,9.31445 l -9.00781,8.13086 c -6.5459,5.90723 -13.07422,11.24121 -20.94922,11.62305 q -0.32958,0.0132 -0.6582,0.0127 z"
       inkscape:connector-curvature="0"
       style="fill:#e6e6e6" />
    <path
       id="path12"
       transform="translate(-195.16231,-218.71126)"
       d="m 920.17571,673.76422 c -1.33022,-9.90531 -2.698,-19.93784 -1.765,-29.94935 0.82868,-8.89127 3.48213,-17.57556 8.88423,-24.69608 a 40.51552,40.51552 0 0 1 10.3105,-9.55122 c 1.03105,-0.6653 1.98,1.00511 0.95345,1.6675 a 38.87072,38.87072 0 0 0 -15.1119,18.64 c -3.29008,8.55479 -3.81842,17.88022 -3.25145,26.96787 0.34287,5.49564 1.06951,10.95525 1.80176,16.40786 a 1.00364,1.00364 0 0 1 -0.65971,1.18778 0.948,0.948 0 0 1 -1.1619,-0.67441 z"
       inkscape:connector-curvature="0"
       style="fill:#f2f2f2" />
    <path
       id="path14"
       transform="translate(-195.16231,-218.71126)"
       d="m 916.41642,679.45831 c 6.40255,-11.58138 13.829,-24.45276 27.09868,-28.56665 a 29.61321,29.61321 0 0 1 11.39812,-1.20314 c 1.21015,0.10668 0.908,2.01365 -0.3,1.90718 a 27.63308,27.63308 0 0 0 -18.18964,4.91957 c -5.12878,3.56882 -9.12211,8.53043 -12.502,13.792 -2.0703,3.22288 -3.92475,6.58244 -5.77955,9.93753 -0.59275,1.07222 -2.32531,0.29825 -1.72564,-0.78651 z"
       inkscape:connector-curvature="0"
       style="fill:#f2f2f2" />
    <path
       id="path16"
       transform="translate(-195.16231,-218.71126)"
       d="M 913.53516,679.28875 920,679.43664 881.02,471.19879 l -6.46484,1.21814 10.17871,54.01971 h -32.79344 l 10.17871,-54.01971 -6.46435,-1.21814 L 817,679.43664 l 6.13916,-0.14789 20.32227,-107.85211 h 49.75146 z m -68.56641,-115.85211 5.46436,-29 h 35.8081 l 5.46436,29 z"
       inkscape:connector-curvature="0"
       style="fill:#cacaca" />
    <path
       id="path18"
       transform="translate(-195.16231,-218.71126)"
       d="m 631.24992,432.35564 v -68.38541 c 0,-2.03045 3.14014,-3.6823 7,-3.6823 3.85986,0 7,1.65185 7,3.6823 v 68.38541 c 0,2.03045 -3.14013,3.6823 -7,3.6823 -3.85987,0 -7,-1.65185 -7,-3.6823 z"
       inkscape:connector-curvature="0"
       style="fill:#f0f0f0" />
    <path
       id="path20"
       transform="translate(-195.16231,-218.71126)"
       d="m 614.49992,432.35564 v -68.38541 c 0,-2.03045 3.14014,-3.6823 7,-3.6823 3.85986,0 7,1.65185 7,3.6823 v 68.38541 c 0,2.03045 -3.14013,3.6823 -7,3.6823 -3.85987,0 -7,-1.65185 -7,-3.6823 z"
       inkscape:connector-curvature="0"
       style="fill:#f0f0f0" />
    <path
       id="path22"
       transform="translate(-195.16231,-218.71126)"
       d="m 597.74992,432.35564 v -68.38541 c 0,-2.03045 3.14014,-3.6823 7,-3.6823 3.85986,0 7,1.65185 7,3.6823 v 68.38541 c 0,2.03045 -3.14013,3.6823 -7,3.6823 -3.85987,0 -7,-1.65185 -7,-3.6823 z"
       inkscape:connector-curvature="0"
       style="fill:#f0f0f0" />
    <path
       id="path24"
       transform="translate(-195.16231,-218.71126)"
       d="m 738.66406,382.06511 a 1.49926,1.49926 0 0 0 -0.65625,-1.02832 L 685.23486,346.198 a 3.95447,3.95447 0 0 0 1.894,-1.65924 h 4.8e-4 a 4.01219,4.01219 0 0 0 -1.46435,-5.46411 l -4.33008,-2.5 a 4.01141,4.01141 0 0 0 -5.46387,1.46411 3.939,3.939 0 0 0 -0.50683,1.64282 L 637.27046,314.53321 A 23.059,23.059 0 0 0 623,301.37706 v -11.08832 h -14 v 11.08838 a 23.00744,23.00744 0 0 0 -16,21.91162 v 3 h 14 a 9,9 0 0 0 18,0 h 14 v -3 a 23.12345,23.12345 0 0 0 -0.40479,-4.28589 l 96.36915,63.61988 -40.03125,48.67027 c -0.311,-0.001 -0.62012,-0.004 -0.93311,-0.004 -3.19385,0 -6.28857,0.0755 -9.2373,0.20551 a 3.957,3.957 0 0 0 0.22851,-1.54376 4.01168,4.01168 0 0 0 -4.20264,-3.78644 l -4.99316,0.26019 a 4.01193,4.01193 0 0 0 -3.78662,4.20276 3.93234,3.93234 0 0 0 0.542,1.77191 C 663.72168,433.33727 658,434.63072 658,435.28874 c 0,1.07831 15.36328,0.0518 34.59229,0.002 a 1.49482,1.49482 0 0 0 2.56591,0.45026 l 0.37061,-0.45007 c 19.17236,0.0534 34.47119,1.07348 34.47119,-0.003 0,-1.01458 -13.602,-3.53839 -31.22607,-3.94311 l 39.56591,-48.10425 a 1.50081,1.50081 0 0 0 0.32422,-1.17627 z"
       inkscape:connector-curvature="0"
       style="fill:#cccccc" />
    <path
       id="path26"
       transform="translate(-195.16231,-218.71126)"
       d="M 740.10747,679.789 H 616.89165 a 9.40286,9.40286 0 0 1 -9.3916,-9.39258 V 468.18056 a 8.40146,8.40146 0 0 0 -8.39209,-8.3916 H 310.89214 a 8.40146,8.40146 0 0 0 -8.39209,8.3916 V 670.39638 A 9.40328,9.40328 0 0 1 293.108,679.789 h -4.21582 a 9.40328,9.40328 0 0 1 -9.39209,-9.39258 V 457.289 a 22.52523,22.52523 0 0 1 22.5,-22.5 h 425 a 22.52554,22.52554 0 0 1 22.5,22.5 v 213.10738 a 9.4037,9.4037 0 0 1 -9.39262,9.39262 z"
       inkscape:connector-curvature="0"
       style="fill:#e4e4e4" />
    <rect
       id="rect28"
       height="6"
       width="141"
       y="268.57748"
       x="412.83768"
       style="fill:#ffffff" />
    <rect
       id="rect30"
       height="6"
       width="141"
       y="349.57748"
       x="412.83768"
       style="fill:#ffffff" />
    <path
       id="path32"
       transform="translate(-195.16231,-218.71126)"
       d="m 491.28362,433.80135 -4.05245,-1.70635 -2.78,-20.315 H 447.431 l -3.01327,20.232 -3.62556,1.81276 a 0.861,0.861 0 0 0 0.38507,1.631 h 49.77242 a 0.86091,0.86091 0 0 0 0.33396,-1.65441 z"
       inkscape:connector-curvature="0"
       style="fill:#e6e6e6" />
    <path
       id="path34"
       transform="translate(-195.16231,-218.71126)"
       d="M 557.07111,414.48284 H 375.21746 a 3.60288,3.60288 0 0 1 -3.59478,-3.60285 V 385.23624 H 560.66589 V 410.88 a 3.60291,3.60291 0 0 1 -3.59478,3.60284 z"
       inkscape:connector-curvature="0"
       style="fill:#cccccc" />
    <path
       id="path36"
       transform="translate(-195.16231,-218.71126)"
       d="M 560.856,397.35609 H 371.45669 V 287.6319 A 4.34819,4.34819 0 0 1 375.8,283.28874 h 180.71262 a 4.34823,4.34823 0 0 1 4.34337,4.34316 z"
       inkscape:connector-curvature="0"
       style="fill:#3f3d56" />
    <path
       id="path38"
       transform="translate(-195.16231,-218.71126)"
       d="M 549.54392,389.3923 H 382.76876 a 3.352,3.352 0 0 1 -3.34838,-3.34828 v -91.44321 a 3.35222,3.35222 0 0 1 3.34838,-3.34848 h 166.77516 a 3.35221,3.35221 0 0 1 3.34837,3.34848 V 386.044 a 3.352,3.352 0 0 1 -3.34837,3.3483 z"
       inkscape:connector-curvature="0"
       style="fill:#ffffff" />
    <path
       id="path40"
       transform="translate(-195.16231,-218.71126)"
       d="m 736.50156,301.7499 a 11.02534,11.02534 0 0 1 12.59153,11.28127 l 36.5651,14.07449 -16.5663,11.83611 -32.183,-15.18 a 11.08508,11.08508 0 0 1 -0.40728,-22.01189 z"
       inkscape:connector-curvature="0"
       style="fill:#9e616a" />
    <path
       id="path42"
       transform="translate(-195.16231,-218.71126)"
       d="m 875.33929,294.84079 6.18593,11.24675 a 32.29577,32.29577 0 0 1 -10.96259,18.21081 c -9.47092,7.98759 -58.99165,37.73652 -58.99165,37.73652 l -62.51748,-31.3853 10.93659,-14.53307 49.0822,16.449 v 0 a 160.76689,160.76689 0 0 1 64.16431,-37.09366 z"
       inkscape:connector-curvature="0"
       style="fill:#e4e4e4" />
    <ellipse
       id="ellipse44"
       ry="15.89806"
       rx="48.7906"
       cy="246.33609"
       cx="668.6745"
       style="fill:#cacaca" />
    <polygon
       id="polygon46"
       points="553.909,391.846 573.031,397.133 559.217,447.105 546.261,443.524 "
       style="fill:#9e616a" />
    <path
       id="path48"
       transform="translate(-195.16231,-218.71126)"
       d="m 754.21182,679.28874 -41.77549,-11.54807 0.146,-0.5284 a 16.8709,16.8709 0 0 1 20.75451,-11.76586 l 10e-4,2.8e-4 25.515,7.05326 z"
       inkscape:connector-curvature="0"
       style="fill:#2f2e41" />
    <polygon
       id="polygon50"
       points="524.448,391.831 542.596,399.844 521.653,447.273 509.356,441.843 "
       style="fill:#9e616a" />
    <path
       id="path52"
       transform="translate(-195.16231,-218.71126)"
       d="m 714.68813,679.28874 -39.64882,-17.50774 0.22143,-0.5015 a 16.87091,16.87091 0 0 1 22.2465,-8.61851 l 10e-4,4.3e-4 24.21611,10.69321 z"
       inkscape:connector-curvature="0"
       style="fill:#2f2e41" />
    <path
       id="path54"
       transform="translate(-195.16231,-218.71126)"
       d="m 901.80851,426.17823 c 0,0 6.51743,20.193 -33.47128,45.73007 l -51.50111,51.31877 -53.51249,128.006 -31.76954,-14.243 6.23094,-16.63206 4.18106,-11.16038 2.1391,-5.70985 2.293,-6.12056 34.01181,-90.78669 28.56991,-50.02329 0.82879,-27.14347 7.02743,-19.1336 50.98344,-18.09089 z"
       inkscape:connector-curvature="0"
       style="fill:#2f2e41" />
    <path
       id="path56"
       transform="translate(-195.16231,-218.71126)"
       d="m 875.80851,427.17823 c 0,0 6.51743,20.193 -33.47128,45.73007 l -51.50111,51.31877 -53.51249,128.006 -31.76954,-14.243 6.23094,-16.63206 4.18106,-11.16038 2.1391,-5.70985 2.293,-6.12056 34.01181,-90.78669 9.56593,-16.74906 a 305.08059,305.08059 0 0 1 45.64647,-60.81518 l 9.3776,-9.69385 1,-15 21.81956,-12.13316 z"
       inkscape:connector-curvature="0"
       style="fill:#2f2e41" />
    <path
       id="path58"
       transform="translate(-195.16231,-218.71126)"
       d="m 845,328.32244 16,-34 27.92154,-3.80877 c 0,0 21.80268,27.77702 16.07846,66.80877 -2.14658,14.63691 -3.89579,29.209 -4,42 -0.0277,3.40345 2.94968,4.92317 3,8 0.0494,3.02251 -5.64319,7.946 -4,10 a 17.53042,17.53042 0 0 1 4,10 c -1.98145,4.71619 -61.956,-20.834 -87.16406,-17.0423 z"
       inkscape:connector-curvature="0"
       style="fill:#e4e4e4" />
    <circle
       id="circle60"
       transform="rotate(-59.27092,573.14457,322.66301)"
       r="25.25457"
       cy="260.492"
       cx="862.94934"
       style="fill:#9e616a" />
    <path
       id="path62"
       transform="translate(-195.16231,-218.71126)"
       d="m 879.09546,251.42424 c -0.0484,0.66454 -0.11521,1.54463 -0.1922,2.54032 a 13.191,13.191 0 0 0 2.19881,7.6799 c 1.41285,2.3894 -0.27318,16.82081 -0.27318,16.82081 41.36829,-28.83633 8.68128,-57.80695 -4.105,-55.23166 0.26695,-3.66713 -10.16122,-2.21439 -10.16122,-2.21439 -3.97342,-6.18782 -12.68186,2.026 -12.68186,2.026 l 1.68045,-2.82693 c -6.761,1.71972 -13.4435,22.61535 -13.4435,22.61535 2.29292,9.01466 37.24472,4.92347 36.9777,8.5906 z"
       inkscape:connector-curvature="0"
       style="fill:#2f2e41" />
    <path
       id="path64"
       transform="translate(-195.16231,-218.71126)"
       d="m 718.61533,341.69729 a 231.84951,231.84951 0 0 0 33.32325,-62.191 5.95528,5.95528 0 0 0 -2.81225,-7.16889 L 700.481,246.27219 a 5.87785,5.87785 0 0 0 -5.15658,-0.20934 5.97828,5.97828 0 0 0 -3.40674,3.99181 141.635,141.635 0 0 1 -31.06747,57.98184 5.9766,5.9766 0 0 0 -1.43709,5.04726 5.87782,5.87782 0 0 0 3.03039,4.17742 l 48.6454,26.06535 a 5.95525,5.95525 0 0 0 7.52642,-1.62924 z"
       inkscape:connector-curvature="0"
       style="fill:#cccccc" />
    <path
       id="path66"
       transform="translate(-195.16231,-218.71126)"
       d="m 715.29577,339.20289 a 1.79733,1.79733 0 0 1 -2.24514,0.46367 L 664.405,313.60078 a 1.72454,1.72454 0 0 1 -0.90327,-1.24156 1.82454,1.82454 0 0 1 0.44986,-1.56119 145.80329,145.80329 0 0 0 31.98281,-59.69024 1.82511,1.82511 0 0 1 1.04924,-1.23878 1.72585,1.72585 0 0 1 1.53686,0.0635 l 48.6445,26.06506 a 1.797,1.797 0 0 1 0.85764,2.12755 227.6977,227.6977 0 0 1 -32.72687,61.07774 z"
       inkscape:connector-curvature="0"
       style="fill:#ffffff" />
    <path
       id="path68"
       transform="translate(-195.16231,-218.71126)"
       d="m 698.27691,274.69686 33.5522,19.66614 c 3.33827,1.95668 6.36129,-3.22725 3.02831,-5.18082 L 701.30522,269.516 c -3.33828,-1.95668 -6.3613,3.22725 -3.02831,5.18083 z"
       inkscape:connector-curvature="0"
       style="fill:#009b99" />
    <path
       id="path70"
       transform="translate(-195.16231,-218.71126)"
       d="m 692.27691,285.69686 33.5522,19.66614 c 3.33827,1.95668 6.36129,-3.22725 3.02831,-5.18082 L 695.30522,280.516 c -3.33828,-1.95668 -6.3613,3.22725 -3.02831,5.18083 z"
       inkscape:connector-curvature="0"
       style="fill:#009b99" />
    <path
       id="path72"
       transform="translate(-195.16231,-218.71126)"
       d="m 685.27691,297.69686 33.5522,19.66614 c 3.33827,1.95668 6.36129,-3.22725 3.02831,-5.18082 L 688.30522,292.516 c -3.33828,-1.95668 -6.3613,3.22725 -3.02831,5.18083 z"
       inkscape:connector-curvature="0"
       style="fill:#009b99" />
    <path
       id="path74"
       transform="translate(-195.16231,-218.71126)"
       d="m 678.27691,307.69686 33.5522,19.66614 c 3.33827,1.95668 6.36129,-3.22725 3.02831,-5.18082 L 681.30522,302.516 c -3.33828,-1.95668 -6.3613,3.22725 -3.02831,5.18083 z"
       inkscape:connector-curvature="0"
       style="fill:#009b99" />
    <path
       id="path76"
       transform="translate(-195.16231,-218.71126)"
       d="m 831.23167,423.37523 12.59633,28.32548 a 4.46863,4.46863 0 0 1 -0.31887,4.24347 4.4794,4.4794 0 0 1 -4.54,2.01919 4.12769,4.12769 0 0 1 -0.86825,-0.23164 4.51166,4.51166 0 0 1 -2.49644,-2.374 l -12.59631,-28.32548 a 4.5000026,4.5000026 0 1 1 8.22353,-3.657 z"
       inkscape:connector-curvature="0"
       style="fill:#009b99" />
    <path
       id="path78"
       transform="translate(-195.16231,-218.71126)"
       d="m 842.81215,449.41639 2.52357,5.71684 1.29034,8.10487 a 2.45095,2.45095 0 0 1 -4.3287,1.9247 l -5.22193,-6.49731 -2.48681,-5.5921 z"
       inkscape:connector-curvature="0"
       style="fill:#3f3d56" />
    <path
       id="path80"
       transform="translate(-195.16231,-218.71126)"
       d="m 820.20888,415.49455 1.8051,11.34012 a 2.45233,2.45233 0 0 0 3.41851,1.8555 l 1.78952,-0.7958 3.45383,7.76666 a 1,1 0 0 0 1.82745,-0.81266 l -3.45383,-7.76667 1.78953,-0.7958 a 2.4555,2.4555 0 0 0 1.24837,-3.23242 2.46816,2.46816 0 0 0 -0.3365,-0.5488 l -7.2116,-8.93584 a 2.45251,2.45251 0 0 0 -4.33038,1.92571 z"
       inkscape:connector-curvature="0"
       style="fill:#3f3d56" />
    <path
       id="path82"
       transform="translate(-195.16231,-218.71126)"
       d="m 825.43444,435.96285 a 11.02532,11.02532 0 0 1 14.67057,-8.40167 l 24.86617,-30.27824 6.02148,19.44936 -24.5365,25.77093 a 11.08508,11.08508 0 0 1 -21.02172,-6.54038 z"
       inkscape:connector-curvature="0"
       style="fill:#9e616a" />
    <path
       id="path84"
       transform="translate(-195.16231,-218.71126)"
       d="m 856.739,433.99538 -10.95185,-15.81938 31.09908,-41.46526 -16.02066,-34.33 1.16655,-40.83515 13.23866,-2.44552 0.16436,0.0824 a 32.53741,32.53741 0 0 1 14.09925,16.42272 c 3.30263,8.25632 10.67508,39.25047 14.77594,56.99017 a 20.67916,20.67916 0 0 1 -5.56052,19.38915 z"
       inkscape:connector-curvature="0"
       style="fill:#e4e4e4" />
    <path
       id="path86"
       transform="translate(-195.16231,-218.71126)"
       d="m 548.37616,357.55691 a 14.71855,14.71855 0 0 0 -0.0908,2.31576 l -56.07285,40.79387 -15.40453,-6.81744 -13.3273,21.90343 26.09783,14.71916 a 11.18571,11.18571 0 0 0 13.31094,-1.741 l 56.43542,-55.12332 a 14.67718,14.67718 0 1 0 -10.94871,-16.05048 z"
       inkscape:connector-curvature="0"
       style="fill:#ffb6b6" />
    <path
       id="path88"
       transform="translate(-195.16231,-218.71126)"
       d="m 490.39921,402.15781 -16.35194,27.248 a 6.292,6.292 0 0 1 -9.388,1.62488 l -24.4831,-20.10741 A 17.47405,17.47405 0 0 1 458.247,381.01 l 29.16955,12.09913 a 6.292,6.292 0 0 1 2.98263,9.04871 z"
       inkscape:connector-curvature="0"
       style="fill:#009b99" />
    <rect
       id="rect90"
       transform="rotate(-180,338.78146,503.08085)"
       height="53.115501"
       width="32.052448"
       y="585.87872"
       x="420.33636"
       style="fill:#cacaca" />
    <rect
       id="rect92"
       transform="rotate(-55.84051,183.24712,717.90093)"
       height="92.964523"
       width="7.3266001"
       y="596.633"
       x="483.52533"
       style="fill:#cacaca" />
    <rect
       id="rect94"
       transform="rotate(-34.15969,-67.955963,851.34967)"
       height="7.3266001"
       width="92.964523"
       y="639.45197"
       x="339.05432"
       style="fill:#cacaca" />
    <circle
       id="circle96"
       r="10.07363"
       cy="450.50385"
       cx="330.48929"
       style="fill:#cacaca" />
    <circle
       id="circle98"
       r="10.07363"
       cy="450.50385"
       cx="240.74242"
       style="fill:#cacaca" />
    <circle
       id="circle100"
       r="10.07363"
       cy="450.50385"
       cx="151.91132"
       style="fill:#cacaca" />
    <rect
       id="rect102"
       height="52.199711"
       width="7.3262801"
       y="398.30414"
       x="237.07927"
       style="fill:#cacaca" />
    <rect
       id="rect104"
       transform="rotate(-180,338.78146,465.0758)"
       height="70.515404"
       width="13.73677"
       y="539.17371"
       x="429.49423"
       style="fill:#cacaca" />
    <path
       id="path106"
       transform="translate(-195.16231,-218.71126)"
       d="M 396.98388,550.16314 V 533.679 a 11.4602,11.4602 0 0 1 11.4473,-11.4473 h 61.35756 A 11.4602,11.4602 0 0 1 481.236,533.679 v 16.48412 a 11.46021,11.46021 0 0 1 -11.4473,11.44731 h -61.35752 a 11.46021,11.46021 0 0 1 -11.4473,-11.44729 z"
       inkscape:connector-curvature="0"
       style="fill:#3f3d56" />
    <polygon
       id="polygon108"
       points="337.683,400.117 312.639,400.118 312.641,444.129 329.609,444.128 "
       style="fill:#ffb8b8" />
    <path
       id="path110"
       transform="translate(-195.16231,-218.71126)"
       d="m 503.47574,679.28874 54.715,-0.002 v -0.69206 a 21.29613,21.29613 0 0 0 -21.29591,-21.29641 h -0.002 l -33.418,10e-4 z"
       inkscape:connector-curvature="0"
       style="fill:#2f2e41" />
    <path
       id="path112"
       transform="translate(-195.16231,-218.71126)"
       d="m 533.18349,635.54817 33.8292,-75.86049 a 27.80148,27.80148 0 0 0 -12.206,-35.68844 l -73.377,-39.34744 -33.48351,-2.848 -30.88625,-2.80744 -0.22269,0.37712 c -0.28487,0.4812 -6.92568,11.95156 -2.43675,24.529 3.405,9.54016 12.26178,16.992 26.32433,22.14865 32.82355,12.03536 70.74125,22.32174 85.51986,26.18485 a 4.77656,4.77656 0 0 1 3.06054,2.43573 4.84211,4.84211 0 0 1 0.27169,3.87392 l -31.42862,70.61047 a 6.22842,6.22842 0 0 0 5.27258,8.34528 l 23.48377,1.70988 q 0.29906,0.0284 0.59541,0.0284 a 6.2243,6.2243 0 0 0 5.68344,-3.69147 z"
       inkscape:connector-curvature="0"
       style="fill:#2f2e41" />
    <polygon
       id="polygon114"
       points="326.61,400.117 301.566,400.118 301.568,444.129 318.536,444.128 "
       style="fill:#ffb8b8" />
    <path
       id="path116"
       transform="translate(-195.16231,-218.71126)"
       d="m 492.40276,679.28874 54.715,-0.002 v -0.69206 a 21.29613,21.29613 0 0 0 -21.29591,-21.29641 h -0.002 l -33.418,10e-4 z"
       inkscape:connector-curvature="0"
       style="fill:#2f2e41" />
    <path
       id="path118"
       transform="translate(-195.16231,-218.71126)"
       d="m 520.7264,639.70053 33.8292,-75.86048 a 27.80148,27.80148 0 0 0 -12.206,-35.68844 l -73.377,-39.34744 -33.4835,-2.848 -24.19165,-2.09847 0.003,-0.33186 c -0.28487,0.4812 -6.92568,11.95157 -2.43674,24.529 3.405,9.54017 5.34117,16.992 19.40372,22.14865 32.82355,12.03537 70.74125,22.32175 85.51985,26.18485 a 4.77664,4.77664 0 0 1 3.06055,2.43573 4.84215,4.84215 0 0 1 0.27169,3.87392 l -31.42862,70.61047 a 6.22843,6.22843 0 0 0 5.27257,8.34528 l 23.48377,1.70988 q 0.29907,0.0284 0.59542,0.0284 a 6.2243,6.2243 0 0 0 5.68343,-3.69148 z"
       inkscape:connector-curvature="0"
       style="fill:#2f2e41" />
    <circle
       id="circle120"
       transform="rotate(-76.6227,230.43989,319.238)"
       r="33.995441"
       cy="305.08478"
       cx="466.43292"
       style="fill:#ffb8b8" />
    <path
       id="path122"
       transform="translate(-195.16231,-218.71126)"
       d="m 583.61533,435.69729 a 231.84951,231.84951 0 0 0 33.32325,-62.191 5.95528,5.95528 0 0 0 -2.81225,-7.16889 L 565.481,340.27219 a 5.87785,5.87785 0 0 0 -5.15658,-0.20934 5.97828,5.97828 0 0 0 -3.40674,3.99181 141.635,141.635 0 0 1 -31.06747,57.98184 5.9766,5.9766 0 0 0 -1.43709,5.04726 5.87782,5.87782 0 0 0 3.03039,4.17742 l 48.6454,26.06535 a 5.95525,5.95525 0 0 0 7.52642,-1.62924 z"
       inkscape:connector-curvature="0"
       style="fill:#cccccc" />
    <path
       id="path124"
       transform="translate(-195.16231,-218.71126)"
       d="m 580.29577,433.20289 a 1.79733,1.79733 0 0 1 -2.24514,0.46367 L 529.405,407.60078 a 1.72454,1.72454 0 0 1 -0.90327,-1.24156 1.82454,1.82454 0 0 1 0.44986,-1.56119 145.80329,145.80329 0 0 0 31.98281,-59.69024 1.82511,1.82511 0 0 1 1.04924,-1.23878 1.72585,1.72585 0 0 1 1.53686,0.0635 l 48.6445,26.06506 a 1.797,1.797 0 0 1 0.85764,2.12755 227.6977,227.6977 0 0 1 -32.72687,61.07774 z"
       inkscape:connector-curvature="0"
       style="fill:#ffffff" />
    <path
       id="path126"
       transform="translate(-195.16231,-218.71126)"
       d="m 563.27691,368.69686 33.5522,19.66614 c 3.33827,1.95668 6.36129,-3.22725 3.02831,-5.18082 L 566.30522,363.516 c -3.33828,-1.95668 -6.3613,3.22725 -3.02831,5.18083 z"
       inkscape:connector-curvature="0"
       style="fill:#cccccc" />
    <path
       id="path128"
       transform="translate(-195.16231,-218.71126)"
       d="m 557.27691,379.69686 33.5522,19.66614 c 3.33827,1.95668 6.36129,-3.22725 3.02831,-5.18082 L 560.30522,374.516 c -3.33828,-1.95668 -6.3613,3.22725 -3.02831,5.18083 z"
       inkscape:connector-curvature="0"
       style="fill:#cccccc" />
    <path
       id="path130"
       transform="translate(-195.16231,-218.71126)"
       d="m 552.56283,390.65405 30.514,18.11469 c 3.036,1.80232 6.283,-1.92391 3.25183,-3.72337 l -30.514,-18.11469 c -3.036,-1.80232 -6.283,1.92391 -3.25183,3.72337 z"
       inkscape:connector-curvature="0"
       style="fill:#cccccc" />
    <path
       id="path132"
       transform="translate(-195.16231,-218.71126)"
       d="m 543.27691,401.69686 33.5522,19.66614 c 3.33827,1.95668 6.36129,-3.22725 3.02831,-5.18082 L 546.30522,396.516 c -3.33828,-1.95668 -6.3613,3.22725 -3.02831,5.18083 z"
       inkscape:connector-curvature="0"
       style="fill:#cccccc" />
    <path
       id="path134"
       transform="translate(-195.16231,-218.71126)"
       d="m 486.03429,487.40552 -67.27393,-0.40234 -0.0183,-0.47852 c -1.28271,-33.75391 2.84253,-64.33008 12.61157,-93.47461 0.13819,-1.09082 0.28736,-2.25683 0.43384,-3.40137 1.6687,-13.03906 2.99365,-23.3916 15.39282,-27.24707 a 8.81478,8.81478 0 0 1 -1.75195,-4.73437 8.61324,8.61324 0 0 1 2.145,-6.29981 8.28292,8.28292 0 0 1 5.75268,-2.80664 l 23.94532,-0.81543 a 5.60432,5.60432 0 0 1 3.47656,1.17871 9.55871,9.55871 0 0 1 2.78369,12.07715 c -0.282,0.56153 -0.38989,0.81739 -0.43115,0.92871 0.85132,4.46 3.3772,9.75782 6.0498,15.36426 3.82715,8.02735 8.1648,17.125 9.28,26.8584 a 49.12715,49.12715 0 0 1 -0.74121,15.749 31.03735,31.03735 0 0 0 -0.34155,8.45313 c 0.21875,4.18164 0.425,8.12988 -1.93848,11.94824 -0.60254,1.03516 -1.292,2.13867 -2.10083,3.36133 l -3.325,7.94824 z"
       inkscape:connector-curvature="0"
       style="fill:#009b99" />
    <path
       id="path136"
       transform="translate(-195.16231,-218.71126)"
       d="M 385.07868,534.64176 V 397.1802 a 16.91412,16.91412 0 0 1 16.89506,-16.89506 h 4.67283 a 16.91412,16.91412 0 0 1 16.89506,16.89506 v 137.46156 a 16.91412,16.91412 0 0 1 -16.89506,16.89506 h -4.67283 a 16.91412,16.91412 0 0 1 -16.89506,-16.89506 z"
       inkscape:connector-curvature="0"
       style="fill:#3f3d56" />
    <path
       id="path138"
       transform="translate(-195.16231,-218.71126)"
       d="m 565.48279,410.9 a 14.71807,14.71807 0 0 0 -1.29948,1.91893 l -69.15783,5.04965 -9.48506,-13.9216 -22.88111,11.56857 14.39633,26.27728 a 11.18571,11.18571 0 0 0 12.22445,5.54752 l 77.02959,-17.02881 A 14.67718,14.67718 0 1 0 565.48279,410.9 Z"
       inkscape:connector-curvature="0"
       style="fill:#ffb6b6" />
    <path
       id="path140"
       transform="translate(-195.16231,-218.71126)"
       d="m 492.6982,418.178 -28.2712,14.51136 a 6.292,6.292 0 0 1 -8.83128,-3.5754 L 445.41503,399.11257 A 17.46464,17.46464 0 0 1 453.023,375.677 c -12.53214,6.43264 13.56852,-11.83946 23.53011,7.56782 l 18.38824,25.67342 a 6.292,6.292 0 0 1 -2.2431,9.25978 z"
       inkscape:connector-curvature="0"
       style="fill:#009b99" />
    <path
       id="path142"
       transform="translate(-195.16231,-218.71126)"
       d="m 451.07579,338.14966 c -2.04614,0 -4.30395,-0.98633 -6.84937,-2.98437 a 43.51291,43.51291 0 0 1 -13.26538,-51.0254 c 1.85083,-4.42089 5.31226,-10.42968 11.29248,-13.95117 4.29883,-2.53027 9.34864,-3.44433 13.74463,-4.10254 3.80567,-0.57031 7.65918,-1.02441 11.45313,-1.34765 4.53345,-0.3877 9.77,-0.64942 14.54614,1.165 3.49927,1.33007 6.47778,3.67871 9.35816,5.95019 1.0039,0.791 2.042,1.61035 3.082,2.36817 a 22.69659,22.69659 0 0 0 8.52758,4.1416 4.6711,4.6711 0 0 1 3.12647,2.29 4.75352,4.75352 0 0 1 0.33374,3.92871 c -0.44922,1.25976 -0.85474,2.39551 -0.0344,3.626 a 3.23958,3.23958 0 0 0 2.70605,1.37891 1.67693,1.67693 0 0 1 1.41846,0.74023 1.70947,1.70947 0 0 1 0.18554,1.58985 l -0.13159,0.33887 a 2.1809,2.1809 0 0 1 1.70069,1.10644 2.23484,2.23484 0 0 1 -0.41089,2.76758 22.40406,22.40406 0 0 1 -10.91773,5.71387 21.82074,21.82074 0 0 1 -8.499,-0.0195 l -0.45117,-0.0879 0.0554,-0.5 c -11.344,-4.04589 -21.584,2.82032 -27.42163,10.66993 l -0.84327,-0.53223 a 2.4192,2.4192 0 0 0 0.10718,-1.89648 2.94074,2.94074 0 0 0 -1.45532,-1.72071 3.80791,3.80791 0 0 0 -4.14429,0.82715 5.6515,5.6515 0 0 0 -1.54956,4.28613 15.33941,15.33941 0 0 0 1.25147,4.80567 c 0.27441,0.72851 0.55835,1.48242 0.78906,2.24219 a 18.31127,18.31127 0 0 1 -0.96753,13.03515 c -0.88354,1.86035 -2.48144,4.23242 -5.07568,4.96777 a 6.07118,6.07118 0 0 1 -1.66137,0.22857 z"
       inkscape:connector-curvature="0"
       style="fill:#2f2e41" />
    <path
       id="path144"
       transform="translate(-195.16231,-218.71126)"
       d="M 1003.647,681.28874 H 196.353 a 1.19069,1.19069 0 0 1 0,-2.38137 h 807.294 a 1.190685,1.190685 0 0 1 0,2.38137 z"
       inkscape:connector-curvature="0"
       style="fill:#cacaca" />
  </g>
</svg>
